<mxfile host="app.diagrams.net" modified="2023-08-12T17:52:38.290Z" agent="Mozilla/5.0 (Windows NT 10.0; Win64; x64) AppleWebKit/537.36 (KHTML, like Gecko) Chrome/115.0.0.0 Safari/537.36" etag="2ShFUu_YRT0L9qBuvFeQ" version="21.6.8" type="github">
  <diagram name="Page-1" id="2YBvvXClWsGukQMizWep">
    <mxGraphModel dx="1615" dy="834" grid="1" gridSize="10" guides="1" tooltips="1" connect="1" arrows="1" fold="1" page="1" pageScale="1" pageWidth="1100" pageHeight="850" background="#FFFFFF" math="0" shadow="0">
      <root>
        <mxCell id="0" />
        <mxCell id="1" parent="0" />
        <mxCell id="Vc_qNqWKN2TwWsNFO-2Q-7" value="&lt;font face=&quot;Tahoma&quot; size=&quot;1&quot; style=&quot;&quot;&gt;&lt;b style=&quot;font-size: 34px;&quot;&gt;POSTAL CODE (Snowflake)&lt;/b&gt;&lt;/font&gt;" style="rounded=1;whiteSpace=wrap;html=1;fillColor=#52A8FF;strokeColor=#36393d;strokeWidth=2;flipH=1;flipV=1;" parent="1" vertex="1">
          <mxGeometry x="120" y="90" width="860" height="60" as="geometry" />
        </mxCell>
        <mxCell id="Vc_qNqWKN2TwWsNFO-2Q-20" value="" style="rounded=1;whiteSpace=wrap;html=1;fontSize=17;fontStyle=1;fillColor=#000000;strokeColor=#04A597;strokeWidth=5;arcSize=5;container=0;" parent="1" vertex="1">
          <mxGeometry x="285" y="280" width="520" height="480" as="geometry" />
        </mxCell>
        <mxCell id="Vc_qNqWKN2TwWsNFO-2Q-21" value="" style="rounded=1;whiteSpace=wrap;html=1;fontSize=17;fontStyle=1;fillColor=#000000;strokeColor=#FF3333;strokeWidth=5;" parent="1" vertex="1">
          <mxGeometry x="885" y="280" width="190" height="480" as="geometry" />
        </mxCell>
        <mxCell id="Vc_qNqWKN2TwWsNFO-2Q-13" value="" style="rounded=1;whiteSpace=wrap;html=1;fontSize=17;fontStyle=1;fillColor=#000000;strokeColor=#9D649E;strokeWidth=5;container=0;labelBackgroundColor=#000000;fontColor=#FFFFFF;" parent="1" vertex="1">
          <mxGeometry x="25" y="280" width="180" height="480" as="geometry" />
        </mxCell>
        <mxCell id="Vc_qNqWKN2TwWsNFO-2Q-92" value="" style="group" parent="1" vertex="1" connectable="0">
          <mxGeometry x="69" y="295" width="89.64426877470356" height="448.22134387351775" as="geometry" />
        </mxCell>
        <mxCell id="Vc_qNqWKN2TwWsNFO-2Q-27" value="" style="shape=image;html=1;verticalAlign=top;verticalLabelPosition=bottom;labelBackgroundColor=#ffffff;imageAspect=0;aspect=fixed;image=https://cdn1.iconfinder.com/data/icons/DarkGlass_Reworked/128x128/mimetypes/zip3.png;container=0;" parent="Vc_qNqWKN2TwWsNFO-2Q-92" vertex="1">
          <mxGeometry width="89.64426877470355" height="89.64426877470355" as="geometry" />
        </mxCell>
        <mxCell id="Vc_qNqWKN2TwWsNFO-2Q-29" value="" style="shape=image;html=1;verticalAlign=top;verticalLabelPosition=bottom;labelBackgroundColor=#ffffff;imageAspect=0;aspect=fixed;image=https://cdn0.iconfinder.com/data/icons/Hosting_Icons/128/ftp-px-png.png;container=0;" parent="Vc_qNqWKN2TwWsNFO-2Q-92" vertex="1">
          <mxGeometry y="170.32411067193675" width="89.64426877470355" height="89.64426877470355" as="geometry" />
        </mxCell>
        <mxCell id="Vc_qNqWKN2TwWsNFO-2Q-30" value="" style="shape=image;html=1;verticalAlign=top;verticalLabelPosition=bottom;labelBackgroundColor=#ffffff;imageAspect=0;aspect=fixed;image=https://cdn3.iconfinder.com/data/icons/cad-database-presentation-spreadsheet-vector-fil-2/512/19-128.png;container=0;" parent="Vc_qNqWKN2TwWsNFO-2Q-92" vertex="1">
          <mxGeometry y="358.57707509881425" width="89.64426877470355" height="89.64426877470355" as="geometry" />
        </mxCell>
        <mxCell id="Vc_qNqWKN2TwWsNFO-2Q-32" value="" style="html=1;shadow=0;dashed=0;align=center;verticalAlign=middle;shape=mxgraph.arrows2.stylisedArrow;dy=0.6;dx=40;notch=15;feather=0.4;direction=south;container=0;fillColor=#cce5ff;gradientColor=#707E8C;strokeColor=#36393d;strokeWidth=3;" parent="Vc_qNqWKN2TwWsNFO-2Q-92" vertex="1">
          <mxGeometry x="24.82213438735178" y="96.81581027667988" width="40" height="71.71541501976284" as="geometry" />
        </mxCell>
        <mxCell id="Vc_qNqWKN2TwWsNFO-2Q-33" value="" style="html=1;shadow=0;dashed=0;align=center;verticalAlign=middle;shape=mxgraph.arrows2.stylisedArrow;dy=0.6;dx=40;notch=15;feather=0.4;direction=south;container=0;fillColor=#cce5ff;gradientColor=#707E8C;strokeColor=#36393d;strokeWidth=3;" parent="Vc_qNqWKN2TwWsNFO-2Q-92" vertex="1">
          <mxGeometry x="24.82213438735178" y="268.93280632411074" width="40" height="71.71541501976284" as="geometry" />
        </mxCell>
        <mxCell id="Vc_qNqWKN2TwWsNFO-2Q-78" value="" style="html=1;shadow=0;dashed=0;align=center;verticalAlign=middle;shape=mxgraph.arrows2.arrow;dy=0;dx=30;notch=30;fillColor=#9D649E;strokeColor=#000000;strokeWidth=3;container=0;gradientColor=#04A597;gradientDirection=east;" parent="1" vertex="1">
          <mxGeometry x="205" y="485" width="80" height="50" as="geometry" />
        </mxCell>
        <mxCell id="Vc_qNqWKN2TwWsNFO-2Q-80" value="" style="html=1;shadow=0;dashed=0;align=center;verticalAlign=middle;shape=mxgraph.arrows2.arrow;dy=0;dx=30;notch=30;fillColor=#FF3333;strokeColor=#000000;strokeWidth=3;container=0;gradientColor=#04A597;gradientDirection=west;" parent="1" vertex="1">
          <mxGeometry x="805" y="596" width="80" height="50" as="geometry" />
        </mxCell>
        <mxCell id="Vc_qNqWKN2TwWsNFO-2Q-26" value="&lt;font style=&quot;font-size: 18px;&quot; face=&quot;Tahoma&quot;&gt;&lt;b style=&quot;&quot;&gt;CURATED&lt;br&gt;&lt;/b&gt;&lt;/font&gt;&lt;b style=&quot;border-color: var(--border-color); font-family: Tahoma; font-size: 18px;&quot;&gt;(Historical)&lt;/b&gt;&lt;font style=&quot;font-size: 18px;&quot; face=&quot;Tahoma&quot;&gt;&lt;b style=&quot;&quot;&gt;&lt;br&gt;POSTAL_CODE_HX&lt;br&gt;&lt;/b&gt;&lt;/font&gt;" style="html=1;dashed=0;whiteSpace=wrap;shape=mxgraph.dfd.start;fillColor=#04A597;container=0;" parent="1" vertex="1">
          <mxGeometry x="580" y="581" width="210" height="80" as="geometry" />
        </mxCell>
        <mxCell id="Vc_qNqWKN2TwWsNFO-2Q-2" value="&lt;font style=&quot;font-size: 24px;&quot;&gt;Data Sources&lt;/font&gt;" style="rounded=1;whiteSpace=wrap;html=1;fontSize=17;fontStyle=1;fillColor=#9D649E;strokeColor=#000000;strokeWidth=3;fontFamily=Tahoma;gradientColor=#513352;container=0;" parent="1" vertex="1">
          <mxGeometry x="25" y="210" width="180" height="50" as="geometry" />
        </mxCell>
        <mxCell id="Vc_qNqWKN2TwWsNFO-2Q-6" value="&lt;font face=&quot;Tahoma&quot; style=&quot;font-size: 24px;&quot;&gt;Data Targets&lt;/font&gt;" style="rounded=1;whiteSpace=wrap;html=1;fontSize=17;fontStyle=1;strokeWidth=3;fillColor=#FF3333;strokeColor=#000000;gradientColor=#991F1F;container=0;" parent="1" vertex="1">
          <mxGeometry x="885" y="210" width="190" height="50" as="geometry" />
        </mxCell>
        <mxCell id="Vc_qNqWKN2TwWsNFO-2Q-17" value="" style="html=1;shadow=0;dashed=0;align=center;verticalAlign=middle;shape=mxgraph.arrows2.arrow;dy=0;dx=30;notch=30;fillColor=#9D649E;strokeColor=#000000;strokeWidth=3;container=0;gradientColor=#04A597;gradientDirection=east;" parent="1" vertex="1">
          <mxGeometry x="205" y="210" width="80" height="50" as="geometry" />
        </mxCell>
        <mxCell id="Vc_qNqWKN2TwWsNFO-2Q-19" value="&lt;font style=&quot;font-size: 24px;&quot;&gt;Data Flow (ELT)&lt;/font&gt;" style="rounded=1;whiteSpace=wrap;html=1;fontSize=17;fontStyle=1;strokeWidth=3;fontFamily=Tahoma;fillColor=#04A597;strokeColor=#000000;fontColor=#000000;gradientColor=#02635B;container=0;" parent="1" vertex="1">
          <mxGeometry x="285" y="210" width="520" height="50" as="geometry" />
        </mxCell>
        <mxCell id="Vc_qNqWKN2TwWsNFO-2Q-70" value="" style="html=1;shadow=0;dashed=0;align=center;verticalAlign=middle;shape=mxgraph.arrows2.arrow;dy=0;dx=30;notch=30;fillColor=#FF3333;strokeColor=#000000;strokeWidth=3;container=0;gradientColor=#04A597;gradientDirection=west;" parent="1" vertex="1">
          <mxGeometry x="805" y="210" width="80" height="50" as="geometry" />
        </mxCell>
        <mxCell id="YdMZqmk-Ah36DfSMYHvH-2" value="" style="shape=image;imageAspect=0;aspect=fixed;verticalLabelPosition=bottom;verticalAlign=top;image=data:image/png,iVBORw0KGgoAAAANSUhEUgAAAlgAAAJYCAYAAAC+ZpjcAAAABGdBTUEAALGPC/xhBQAAACBjSFJNAAB6JgAAgIQAAPoAAACA6AAAdTAAAOpgAAA6mAAAF3CculE8AAAABmJLR0QA/wD/AP+gvaeTAAB1WklEQVR42u3deXhU1fkH8O977kxWNoFsLIqKkBmQ2oK2Wq3QqkgSxDW21rV1X+pS9xVrrXWpe13qVq11iXUBMgGqLVSt1iqtRUgComDBZCYBkSXrzJz39wfWHwgqIZOcWb6f5/F52snkzvdeMnfeOffc9wBERERERERERERERERERERERERERERERERERERERERERERERERERERERERERERERERERERERERERERERERERERERERERERERERERERERERERERERERERERERERERERERERERERERERERERERERERERERERERERERERERERERERERERERERERERERERERERERERERERERERERERERERERERERERERERERERERERERERERERERERERERERERERERERERERERERERERERERERERERERERERERERERERERERERERERERERERERERERERERERERERERERERERERERERERERERERERERERERERERERERERERERERERERERERERERERERERERERERERERERERERERERERERERERERERERERERERERERERERERERERERERERERERERERERERERERERERERERERERERERERERERERERERERERERERERERERERERERERERERERERERERERERERERERERERERERERERERERERERERERERERERpTVwHIKKvNnGe+j7pjGRH1etnYvG91egBauWbAHIh2O//nylLoLoGIu+q1Xc12wvFY2Zj1sZwe23lmE7X+5F6VEbWLMuyG01OTp++u6nVCsDupUZGimLc1s/GQlFZBsW7sCbU0b7+A9PHti8rG9kJiLreGyLqXSywiJLU7i+EC7NyZD+x+gMV7A3FGAj6dHEz7wvwuhW86bP29UWtJUtRKXHX+5bsAtXhsYAeoCL7C7AfIMMB9bZ7AwoLg/9C8SZEXoOnr9VNLl7ker+IqPewwCJKQoGaxstE5WQFhgLom4BNRgFpEqC6w6fXfjC5uMn1PiajQGjtLqodN4qRSVAdDCArAZvtBLAGwHwbx1VLDite7no/iajnscAiShJ7Vn+6UxRth4mYGwEd2oMvtQHALYD9Q135kI9c77dzVVVeIH//YRBzGiDnQrV/D77aelHcDGufrP1XySpMF+t694moZ7DAIkoCpbMaJ4oxVwC6P4C8XnjJuEDes2rv3Ngaq1pVObzN9TFwJRCKnADoxcDW86p60AKxckft1KI/ut5/IuoZLLCIXFKVwKym4+Hpb5GYS4FdTwC9o7685OeuD0VvG/HY8py8wrxHFPojuDkXKhQPtzW3/WzFKbu2uz4eRJRYLLCIHNnrxbUDOrPaz1fIVQD8LrOIyFzP8y5475BBSyDpf8fbN2atHtppYvcCMrVLk9cTTmICO8NE7YWLDh+60vVxIaLEYYFF5MDImsYCn8qdojgWAocf8J9TQBf441K5MM0nYY+e0TzE+OLPA9gHgHGdB4AF8Lb1e0cuOaSgwXUYIkqMZDi5EGWUYJVmZVlcK8BxSVJcAYAAMiHqw8tjX1oz3HWYnjL2pY+HG599GsB3kDznPwPg2140XjWuZs0w12GIKDGS5QRDlBEmzlMf8iPXq8gZrrNsk2L3mL/zd+n4QT/iseU5cb93G1T3d51lWxTYN6rRWybO0xzXWYio+1hgEfWiSHvkJIVeCMdzrr6KwBwc1dh5rnMkWk5h7p0KHAVJ2vOeAVDZ1Nb0S9dBiKj7kvVEQ5R2xtZEdofiQkCyXWf5auoBev7o6vBhrpMkxPTpJlATPlagpwiS5pLsl/FU9bzA7KYyqHKOLFEKY4FF1Eviqr+CYozrHNsp2xM8NHp282jXQbpr7DfPKoDFzwBJRFf23pAFG7903IuRAtdBiGjHscAi6gWjQ+FpACpd5+gKBQqNjV88/kFN2suZ2yPmw+FbLoqdCuTAaJYe7ToFEe04FlhEPSzw/IoSA73adY4donpIR3FTwHWMHTWuZs0wgV7lOseOUMEVY2dEilznIKIdwwKLqIeZ7Jy9IVLqOscOERluffYk1zF21GeT9VOy7YRAhsV9uMh1DiLaMSywiHqYFRwHRR/XOXaQqMpJI2vW9HMdpKvGzl0zHLCHu87RPfbwsa9wFIsoFbHAIupBpS+sGgTFZNc5ukUwyK/xE1zH6Cob7fwOIKndz0tlSDyaavPHiAhggUXUo0yW7zgIBrjO0V2i8RNdZ+gSVYHgOwDyXEfpFkEfsboPpivP1UQphm9aoh5kDVJu5GdbFDJs1KyGlJlHNnE+PAv5nuscCSG6f/AY+FzHIKKuYYFF1EN2f+nj4aIy3nWOBOnneV7KFFhNzbVGoHu6zpEI1mJ87oeNLLCIUgwLLKIe4vdJEEiTbtyCPrA2ZZqOau7Ag5K/Y/72EZHcFmO+7zoHEXUNCyyiniIYgfQor/63Q8UT581LjZEUkW+6jpDY3dGg6wxE1DUssIh6iIHZBZpGJZZgxAqMSI0CC5joOkBCqUmVJZaI6DMssIh6iALptpZcfkn2iNQoGCVl1h3cPmp3cx2BiLqGBRYRERFRgrHAIiIiIkowFlhERERECcYCi4iIiCjBWGARERERJViq3HJNREREmzmmSr26rIYhcc/m/O+xqOf7dFlZSbPrbMQCi4iIKGWMDjUcauBVQHXiIomMADwDeJ+3T/FZ1UAobAXymoX+TXyorptcvMh17kzEAouIiChJjaxpLPCs7GsEUwFMA1AAKL6shbHIph8o9FABDkUMNwVCjXUQeUE9qWlvaP3XilN2bXe9X5mAc7CIiIiSULC66Ri/mj8Z0WcBnIodbl4sASiukpg+n1uY+3jp3OZ0WYQ+qXEEi4iIKFmoytiZTYVxn96hsD/a9OCXLqDQCSAKwH7+iEAAyYaqfxvPLwZQKdHY1EB14/XS6v22trJwo+tdTlcssIiIiJLE6NkN+8V85g6BTNjWzxVoEuCfEPxH1K5SlZXGh9bPf269HAvsbtTuoiLjBNhHgQFbbEQkF5AbtY9+uzTUfHl9ecFS1/udjlhgERERJYFgdcMBquYlAAO3/qlEYPUmzfaeM35dXzvpa0aepqsZuc8nffKi7SWdPu8kUZwHQZ//f4J6UEwziH+jdPbaH9RP2WmF6/1PNyywiIiIHAtWNxygYp7A1sVVM0SejyJ647Kpw1Zt9wani10GrMem/64sDYWfNsAvFPg+gH6fPcsosJvEO2aNrW6oXFQxpM71cUgnnORORETkUHBmw84Q724AI7b8iS5Ri5/WlRWdtaysC8XVNtSXF7+XW1RUCZHzBLLltgRj4uL9Bqqyg5unbWCBRURE5Mp0NeqZ5xS61+YPC3StJ6a8fmrxrES91IIJEq0rK3oirvZEBeJbvBx0SjAUuZtFVuKwwCIiInJB1QQmhM8EsGXbBMFiY8zERWVFH/TEyy6pKJlnDCYD2GL7Kji3tDpS4fqwpAsWWERERA4E5q4uEpGTAXibPdwiotcvequwR7uv1771wDyI/AKCLSbLi9GzxsxZOXBHt0v/j5PciYiIHNB4fBKAvb/w8Iu1U0qe+8IzJRBq3Blq+n79Rk1H1OtsA9rWL/vnyI2YLnabz5s+3UrVdc9oXvhAiPzk/38gB6r6vwngL66PT6pjgUVEROSAAS7VLR9qhOdd+sXnHVMFswjmtxCUf+1GJb7Wb72wou/7Y/aOzJcZkacWTSuKbOuptZXSGQw1XQXYfRUIfPZwnqqcAxZY3cZLhERERL0sWN10gALjNn9MFffWHVrQ2L0ty04QCYjgsDhwa9ynfy8NNY/6smfXlheG1eAXWzyoetjoP/93iOtjlOpYYBEREfUyNfojbLkGTgTw5ibyNWTT3K7dBfG5Y2av3vvLnmejeAuCxZs95JmO7ONdH6NUxwKLiIioF42sWdMPqt/d/DEBaj1f1vIeesldrI1dOLLm/ext/bDPkKJVovjnFnk8Pdr1cUp1LLCIiIh6kT/WPhKQQZs/psDCxYf2/6Qr2xHR34jIJf/7D8AdAGqxaQHoLZ4K6JE50X4DtrWdBRMkqqpvQ/D5lDBV8BJhN3GSOxERUW8ypgTQPps/pNYu7vJ2Ynis9rCiLX4vOK+pj22J/0pEztvyyZId9XAwgCe3tSmx+p7K5lcsNdf1YUp1HMEiIiLqVVIMIH+Lh3xeQvpe1U4q3GjVPLKtn3lGA1/2ex3ZZimAzW5qlBzXRynVcQSLEmJkzZp+Xiw6SDz0MWoHQKQkbrX4fz83YloEdqlabYmLtJqobd4zNvTT5yol3p3XJaIUpyqjZ64sUWMKjOcvknh8H/HMrrDaT4FdIcYDABFdDMVGFf1QxHsDEl/rE2keva5oTaqdRxTIky98/kpMVidq+wbRvG19vKtF85f9zgeTi5sCofDmD3mgbmGBRTts/CzNa0XjIWLkAEW0FB52BmSQiikBAGO2XNJKYQBP13qQTzXbLF+c3fTfwKzGefB3vFx36Ihu3ppMRKlkZM2afj6NVkhNeDJ8WaMV2FVUC2EMVAF8frlq06CKKvba9D8EqhYK+TgK+XBRXmRpaXWkpvid2pnzp0+Kud6vHdXWp2VlIrYzpqYxaNVcs8Vg1P9Y79UubCq7C8+lbWCBRV02ekZzX+PXs1s1cgVg+iuw2XtZv+a3ZScAOwmwq0IBIycjnoNAKHKfX6I3LSwb+jEgX7cRIkpR42c15LUaOUc1erEAhf/rVNDVFYYFGAroUAgOEOhPI3sH1gdnR87BhtVVtZVjOl3vZ1etmLRre1d/Rz1Z9IVRJ9gtT8ibe0fadanr/cwkLLBo+6jKmNnhgMIcqxo/BYrhCX6Bs6PqPyFQHXlGbNMThX0L/jF/kqTst1Ei2tLImlXDsjVrWqvYs6AIStdrqq/TT63+HvmDzgqGmh6O2dispVOHJOyyW0+bOE99PXjOa1O1D9UdU9Tiej8zCSe503YJzg6fY61Uq+rVQKKLq//RvhCcpp79U6Ql/PCoWQ2DXe83EXXfmJrwVL/1PW8Rvx2KMUh8cfU/HoD9VOMPeMb745iaxqDrfd9eqz9t2qWntq2Ch02r7ylIl64O2C48l7aBI1j0lcbWRHaPq96misN77JS4tSKInOQBFcFQ08VZnS0vvXvErp+6PhZEtP0mzlNfuHX1bgb2V1b1qE3nj146iYhkAXqIqvxzdKjxvI684qdXTJIuX4LrKUYkqlCLzQY5rIn164nXUujt9WUlP/+65wWrNEsR2fwXO1wfp1THESz6UsGaxilx1WcAHOYkgMgghX2o3Z/zzOjqxmOGVa1kXxaiFDCyZs2wSGv4RoPYXxR6lKscCuQblbtzW8LT902i84eoNgCycfPHrN+b0PUN4U2ofWXTfzof0G0VkZVj5jSN/NpjldMwFptXwLJVs1LqIhZYtE2lsyNHqsozACbA7d+JT0QmGyNP9M3Pep4LkBIlselqSqsbT/Lb6FuAXKyQYa4jQdAHIj9fm++bnSxFljVoArR1iwcVY7u6HbXeeXmKaXmKaX6/VIjxfrf17sswG9dHvmyZnM+f5/fv/oWHOF+rm1hg0VaCNU1TRPVOAD0yZL1DFDmATjHRrKVjqhuvHTNj5dd+IyOi3jGsamVucFb4B8G9w1Ui8nsIhiC5Pl98Ajnw03zfA7tVfdDfdZgo9ANA123+mCjGlb6walBXtmNsrH3B1CGtC6YOaV04ubglNxa7AtDZWz9Tv52Ffueiqmqbva2OqVJPrR6ILa/hrnV9nFJdMr0BKAkEQx9PU7WPJv4uwYTJt5DrrM//4uhQ4yW7vfyJ85MlUSYbNauhtG++70EVPKsQZ5cDt48cnd2nz5WuUyz7Z/Eagdmyc7tIQLPNrt3Z7oKpQ1pFvKsAvP+FH2Wr6s/GZh84Zlu/tzB7dRGgW16iVPzd9XFKdSyw6HOlofCeCnMXgOJub6wnCQyAsQZyS3ZntGb07Mi4YNXiLNexiDLJbi9/0D8QCp/vGfNvQE6AoEujL47kQfXS0lD4OKj23m07XzRdLGCrtnxQi4yayd3ddG1Z4b8V9jfQre4C3Dnmszdv63c8v34DwLc2e8iq8f7o7PikCd5FSJtUVXkiuBIqyTpy9SV0P8/iDc0b9FTprMhj9VOL3nSdiCidjaxZ0y9L44eiI36eCr6DFPwcEeBXwZrm2lrgXVcZOiVrjl87VwKbnXNFzhk9o/mxJdMKGjZ/7nO10OAEvKAitZs/bnTby+vkF5U82haODFLIgC33Wz/64nODVZoFjVwFwL/ZE9+qLyv4m6tjky5S7o1BPSOQv/+5UByNFBzV1E2Lpv4Unk4LhhqfNDFzy6JpRZFub5iItrDnrNWlMY3erYL9AMnv/hZdkeGq9ucja94/dVnZHk7aESwrG7S+tDpyl4je9v+Paol48fsBTNviydPF1gKPbu+2F0yQKIBfbc9zbX74CoHsu8XRUX3IxTFJNyn3YUqJN3r2x6MBuRGpXHALjCgKFXJR3Kd/LQ01HDVqVsNgp5cBiNLEntWR3YLVjdfHvFgtgIOhSOHiCgDUAFqZjX5db42QQCJZfwJkyZaP4QeB2eEfQrVnP59VZXR14ySBnIsta4F3FTl/dXlc0gULrAw3/h31e+qdk9rfRrcSFJinfMb7Q2BO8xTXYYhS1Zg5KweWhpouj4m+pJCrob3YbriniWRZ1YdGv97c11WEvFUfNEDxErZcPDAfVq8P1nw8ridfe8/qxtFG5BbgC3PnBI/XtQxY5eqYpBMWWBmuI9w4EpAy1zl6QJZCD4W11YFQ5MVgqCm5J+4TJZkxNY1BG/f/TWBvArDnZzeXpJuA+TRe6erFF5wxIRrX+G2iaNryJzJK4Zs/tiay+45t+auNnhneNS7mTWzqc/h50ayChXVTiu5CpcRdHZN0ko5vGOqCmJjDVbVH3sRJQgA9XGH/GagOX8D+WURfLTircZ9ATeQ+q7IY6Hrzy1Qj0GNG1qxx1vNv6dQhqy3iRwL44rzR/lZ11phQw6GJfL1AdeQg4+ElFQz4wo9qRbMP6+J6hfQVWGBlOAM923WGXjIcgtusz/9CIBQ+1XUYomQz+s/NQwKhyC1q5E+weobrPL1FxYz1tGOUywz1FUPfUME1ALbo7q5AIA7zeKA6fMc3azYUdOc1Rs1qGBwIRW6G6B8AfOHyozSqkYvqynf6aIc2TtuUupOaqdsCNZHDVdX9Uha9xwOwJ4CHAtXhn4jqBWgrfre2UjpdByNyZWTNmn5+G9sH0fh9APYA0GtrMicHHWog3wbwjssU+StX/b5t2LDdFLgIwOd9/QQohOCCdtsyLRhqvFzbO15rG7jL2u1ZvHrEvOU5ea35A9TovrB6M6B7bPUkwRoIflk/pWiuy/1PRyywMpnqj1xHcEawrwqqkR+uCoaaHq4tL3zXdSSi3jamJvx9RfR8FT0UkMxt1qvyAwC/dRlhwRkTosGqxdchf1AYwGUASrZ4gmBXhTyLnOylua3htwLVjYuNJ3VqEYn7/n8Olxcz/UVkeBzxEdKqE6DxfWCldKsXFCgU72lcz6+fWjzf5b6nKxZYGWpkzZp+0Oi3XedwSwoAnK2wx5ZWh+/Ys7Xo5uc4uZMywJg5Kwdam/WwtXowDPIByagxq60Y+Y7rCABQWzmmE9On3xPY+/R/Q+UPENl562fJKACjIBK3VjsAxEwMsf/9VGE9VfgFyALE96WNalReAeKn1VeU/Nf1fqcrzsHKUD5r94Cgj+scSUAADBbBjYvyIwuDofC08VzfkNJUMNRUHJwVOdPG/f+G6hEQ9Emr1gs7SrWkNLTK6Tysz02fbuvKh7waVx2vwN3YRvf1z0J7APIA9AMwcLP/+n/2+LYGUGJQ/ZcoflZXXnRIXfmQjzipveewwMpQntgRAHJc50gyQRU82dbZ8XSgOnKQ6zBEiTJxnvpKQ+EfKeJVMLgHwM7d3miaEZUDXGfY3NKpQ1bnFxVdLPAOB/RcAO9uY33B7RVV6BxY+SlEj6x95wGnl0MzBS8RZqg4MFh0s7WnaBNFH4VMgeCQQCj8WNzaK5ZWlKzhtzxKRcdUqbewf2TnSEvkIRH84H8Tb2hrIl6h6wxf9NmSN+9+9t9v9wit2ssH31EAjgIwDJsGSTxg8wuBYgFYADFA3raIP288/4z6QwsaXe9PpmGBlaFEbSEkgye1fi31AJzqGe97gZrGB+yM/z67ZNrODd3eLFEvGT03vOviaORUE8NJEAx1nSfpKZJiHtZXeb982LvYVGxds2f1RzvZWFYJsqQYYj7/smxV15lodPXiacOXuc6b6VhgEX0lHQWYm43Pf+ro0MdXLikfOsN1IqKvMrLm/Wy/7fdTxHCRCnYBlOf5NPRexS5rAawFUOs6C20b33hEX88PSNDAeykQanzBQm/yWtYurK0cw/5ZlDTGz2rIa0PWWNX4rRD9nus8RJmOk9yJukSONDAzNW/gnXvOaijdcu4DkRujZq0ubTHmXjXROQCLK6JkwAKLqOtKYOTMmDGvloYaT3cdhjLXiHnLc0pD4Ss8E1soIicDspPrTES0CS8RZigxpk1VLVhk75hNvYMKBOaB0lC4UkTu8Xv68sLJxS2uo1H627P6o51iyJ6MVjkb0E3tBZR3B3aHGv276wyUXvjhmqGs2tWARl3nSAcCfB+KR6NRfbZ0VmRfTFe+r6jHlFZH9otL9uMQPPp5cUXdF8ci1xEovXAEK0OZuC5Tz2sFNNt1lvSgO0GkXKAHlu4ducfOWn+7aotPMnwFEkqc4Muf7IzOjvMVehHHqhJObXb0XdchKL2wwMpQMcla7iH2tauxUxcJ+ghwhWdaKwCTAzZ1pEQQ2Vk7O0OABF1HSVMrlhzCPneUWLyUkaGWLhjUCJGPur8l+hJ7ArqH6xCUNnYGMBY8Z/cQnes6AaUfvlkz1XSxiOszrmMQETkWs2Jedx2C0g8LrAwmxjwLYJ3rHEREDi33ddp/uw5B6YcFVgarLS8MA+DQOBFlLFH9d07k4/dd56D0wwIr48nDANa7TkFE5ITxfr/gjAlsWUMJxwIrw3W0bPynqL7pOgcRUW8TkbmFuQUvu85B6YkFVob7sHL3dWrkMQBx11mIiHrR6pgXv2D+JIm5DkLpiQUWYcPG6EyB1rjOQUTUS2IKPDQkq2SZ6yCUvlhgEVZVDm/LtfpDhXzsOgsRUS9YJZ53D0evqCexwCIAwIKKkjYDuRqKDa6zEBH1oEbAnFR3aEGj6yCU3lhg0SYi6vPZ5zYtIEtElJY2AHJZXXnhq66DUPpjgUWfWzi5uKWuvPgCQJ8AwKFzIkonUYi5cWxL4VOug1BmYIFFW4lK1nkCeQQQ3llIROlgPYDL8lYW3P5cJc9r1DtYYNFWlpUNWu/z6c+h9neusxARddNqWDm57u2iuxacIWwoSr3G5zoAJaeFk4tbAJwdDIXrVXEpBENdZyIi6oJOQGo1bi+oP6z4b67DUObhCBZ9tZY1DyikEsI+WUSUGkTxqUJ/Bc+U1R9WwuKKnOAIFn2l2soxnQDeQJUeVpr/8RSjvjtUsBtYnBNRslFY8eTPneo7bVnZoFWu41Bm44ckbZ9KideXD6suzC/aE8DFgLzrOhIR0Wc6AHlVBcf7jB7N4oqSAUewqEvmT5J2qN419s+f/Cke7/wR1FwJaH/XuYgoQwk+EYsrTLxlxqJpu0VcxyH6HxZY1HUidhGwEsAtY6sbZsXF3ALgewD6uY5GRBlCsAaqoU5PLvmgrLjJdRyiL+IlQuqWRRVD6vKKio6EkZMVOoe9s4ioh0VV8UcLVErLJ6d9MJnFFSUnjmBRty2YIFEAL46s0ZpsNE+1qvcDGOw6FxGlnY/E4qd5JUWvfnbeIUpaLLAoYZaVSQeAP+1ZHflX3OgFChwOxXDXuYgopSlEPoDaF7Pzcn717qSdPnUdiGh7sMCihHuvoujD4GK92K5Y/YSBPQ/QYwFku85FRCmnHcCDErMP1U4troOIdR2IaHuxwKIeUTtGOgG8A+CkUTVNz3hqfwNgJAC/62xElPSiAP7lmazTF00ZuNB1GKIdwUnu1OOWlhXO9ndgIgSXQoQnSyL6MnEA/xTIz3zaMYXFFaUyjmBRr1h4ZHETqvSesdlNT8c8/EwE5wHo6zoXESUHUW1V4Nfx/Pz7l07qt9p1HqLuYoFFvadS4ouACICrgqHwTFVcC5F9Ad3JdTQickXWAvqyz8rlCw8rXu46DVGi8BIhOVFbXvyWtJpjIfiJAm+4zkNEvS6q0Dlq8cM8a09hcUXphiNY5ExtZeFGAC8BeClQ3XgWxNzI0SyijLBOoBfkFRX/kf2sKF1xBIuSQl1Fyf3WmH2heEQgXKiVKD01AnJrVGJja8tLfs/iitIZCyxKGkumFCzJKy46Kxa3R0Lwous8RJQwMUCfEE8Pjsr6a5aVDeOXKEp7vERISeWzb7RvAzhydCg8TYDrBRgLwHOdjYi6SjsU8rEYPW/shuK5z1VyrVLKHBzBoqS1pLx4hsa8MkCuALDIdR4i6pJagVyak5c9vm5KSQ2LK8o0LLAoqS2ZVtBQV1Z4m5ctB6ngXtd5iOjraCfU3Glj3ndq3y66l2sHUqbiJUJKfiL6Wf+s80pnrXpKPN+lsDoZIrmuoxHR5zZA8JqId1PtWwVvYDrXDaTMxhEsSin1U4e92eHPOllEfgTgH67zEBEA4J8QOXHDgOjRtVMKX2dxRcQRLEpBHx48cB2AGSPmLZ+b05p3mQAXAdoXgLjORpRBFMAagf62trxkuuswRMmGI1iUslZM2rW9vrzoeoXZG9AHAf3EdSaiTCBAE0Qe8GLyg9qy4utd5yFKRiywKOXVlxcsbWtqv9CH7IlQDbnOQ5TORHUuxBwaxfoLF00rWggRdZ2JKBnxEiGlhRWn7NoO4L3xD75zRMuwnX8ssBdBpBSqftfZiFKeSBTQOijuqa0oedh1HKJUwBEsSisLzpgQrS8v/L3AHKIWVwD4yHUmohS3QlWvU9FpdeXFLK6IthNHsCgt1ZYXhgH8ZvSM5t8ZX/wOAD91nYkopSisCp7Nycs+m72siLqOI1iU1pZMK9hQV1Z0OiCHAPISgDbXmYiSmQJtEPwF0MPyi4pOYnFFtGM4gkXpT8TWAS+PrHn/Lb/0+4FY/aUCQdexiJKNAssBXKXtsT/XHzlsjes8RKmMBRZljGVle6wH8OK+VSvnrMvz3aAiJwIYBI7kUoYTaBMUf5DW4itrK6XTdR6idMAPFso4b1YOb6utKLlE1U4B5H4AG1xnInJkAxSPGvjKx7QWX8biiihxWGBRptL6iiELpGX1RUb0O1C8gU2dqenLWPtRZxZirmNsZ9ha1wlSwEq1Mll2LTprUXnBO89VStx1IKJ0wkuEyUbV7Bla1z8mrf3g92XZaKy/EeMDAM/adfEsX0xN5yfmk3UbaivH8NtmN312DGuDVTpJ85tPE9jTPpufxf5ZXyDGrF7w4XOpssbch64DJLFFovL72oqi37gOkk6C85r62Pb4YE+RZyH9tnqCh42I2Q22v/+TJfsXcNQ8A3DttiQwYt7ynKyOnHG+uNkf0PEKHQox/URtjkIGQD/7sBesFWhMFashsgaQ9yHxN7I7cue/ewTv9EmEQKhhFxHvaLV6BQSDXOdJGoKoCs6tn1L8O9dRtsfoUPMEg/jbrnMkmdWiep9q7Mm6BcM+4ILM3ReYs6JEY9mHiMj+AHYBpACqfQAM+OJzRbBegfUAVkOxXERfift9ry85pKDB9X5Qz2CB5cjEefN8n6wNDIxmmVPU6LmiOmzHtybrVO2Lnpo7W1a3Lvmsqzl1w7i54fxYVH+vIuUAcl3nSQKfqNWj6qeWzHcdZHsEqxZnaf6gTwDku86SBDohWGDFO2XJlIIlrsOkNFUZ9tyqnD55OUGY2LWiclg3t9gJRUhM/IZODKldNgWdXHoofbDA6mXBxZqlKxq/I2KOVsUPARQkcPOtAF5XmKdtXk710kn9Vrve31Q2cZ76mlsiZVZwGoDvA8hzncmhFQKz72cNXJPeMVXqLcoP/wWQA11ncUmAeVD7aG3FkCddZ0l1e724dkB7TkelsThRoXsDkpXI7QtkjlV9EZ2x59kiIz2wwOpF36xpLGhXuR3AoQAG99gLqXaKmLdt3F5Vf1jJ31zvd6rbreqD/ln5+eUC3AagxHUeN/SJurLik1Pm27WqBGZHboDiKtdRHFkpIlfE4vG5SytK1qTMv1uSCtQ0HA6VawEJAMjpwZdqV8USo/h57YKiebyMm9pYYPWCYVUrc/vmeofCmPsBFPXma4vgUYH+ZvGU4jqeZLtn9Azt63nhayH4oUK6cUk3xSisKA6pnVr8F9dRuqI0FK4QkSeh2t91ll6igK6GytwYOq57v2IXTvTvhmCVZsVyG3fzGe8yhR4HIKEjVl+jU4HpWT48snBycZPrY0E7hgVWD9u3amXup/lZtwF6PIB+3d5g1ymAFQI8q553d92hBY2uj0kqG/+O+tsaw99UkVMhcjSgO7nO1NMEeBcta76danetjprVMNgTby5Ev+U6S88TK4JnBPpITmHRawsmSNR1olQ2atbKoZ7J+hlUj4dgiMMoryAev6zusKH/cn1MqOtYYPWgwJzmEsRsNUS/CffHWgFpgJHT66YU1rg+NilP1ZRWf/xtMd5jgIx2HacnidHK2iklz7nOsSOC1ZGLVfRW1zl6lq4UK6fUthXNB3tZdVuwOnI8xN6tkAFwf96GAh/6kXX4e+UD33OdhbrG+R9Puho9M7yr8fAggIOQfMf5JUDuyysqnM9vut2z7xuau25N+KdqcDIg413n6QFv2Zh35JJpqXkr+V7z1g7oaO34F4BdXWdJNAHqAbzY4cOdH/AyUreMmLc8J3djzvdh5GwFDhXAc51pC4oNKjiuOK9uzvxJk1Kk2S+xk3sPGDNn3UDj4WkAP0DyFVcAcDigT7VGmh4ZWxPZ3XWYVPbmftJW2/ba/YAepcAVANLnEqxAVcyTS/49OCXuHNyWdyft9KmBXAIgfb5IqHYCuMuz9ogxLUXXsLjqnrHVqwO5LTlPwMhTAMqTrrgCAEFfgf4m0hIodR2Ftl8yfvintJE1a/r5bfT3EBzhOst2+gQiV2d3tD797uEj1nEifPeUhppHCeK3A/gegD5I7ffY+wNaot94s3J4m+sg3bFn9ac7xdD+JARlrrN0j3YoZIHE4+dxTk43qUrpix8PNFm+MxS4GpIave4UWN6Z1fLNDw/efZ3rLPT1Uvnkn5QC1Y2XQeQ6pFpzSsF8iesTudBnF0wd0uo6TiobWfN+dpb2PdRCzhTooa7z7KAPrPHK06UxZSDU8D2BN0OhA1xn2UH/FMUj7dlZz3548EB+uHbD6Bn1fcX0P0k2Xdb/FlLsc1Agz4vXefriQ4d/4joLfbWU+sNKdsGXG3bWTvNvAANdZ9lB7SpYYONyztKpRf9xHSalqcromav7wK+TDexdUKd3InVVKxQ/q6sofsR1kISZriY4oek4Ff2D6yhd1ALI9T7Nfvi98v6fcoS5e4KzGvdRwf0QGYvebbuQSJ1QubCuvPB+/j0kNxZYCfLZZNpXAezpOku3CTYCuEvVe2LPlsEfPMc7k7pl9J+bh3jR+LUKTAGws+s8X0UgMYV9cENL7JJVKX5pcFtKQ+G7RHA6tEebRSaAroXKfO2MXV5/5LClrtOksonz1NfcFh4Vt/iJiJwLINt1pm4TWRKPd/5g6dThH7uOQl+Ok9wTpKOl42SkQ3EFAIo+UFwuiL20qE/k8jFz1qXqiFxSWHJIQUNhXtG5xujRCjwGSdI7N0WiInKzja27Ih2LKwDwvOj1ovK46xxfSeQvBt5xbflFx7G46p4xc1YODLdFrrcqM0Xk50iH4goAVEd74r/OdQz6ahzBSoBgqKnYwj4vwH6us/QIwWJPvZMH5w1+d/4k4S3C3RSYueo78PkegcpoQJPkjiWJA3qvjCi6tHaMpFRD0R0RmB15AnH9MSRpvmQqgDAgl9WVF6XaZcykE6zSLOkTmWxVHwckbZsBx21sr6VTh3E6R5JKlpNLSlO1EwVIxx5In+0gxsTFvtHUGvldaU1jRi+emwh1hw37R1tH23dF7eWALnCdB8B6gd7S0dJyXSYUVwCwYUPnGSJ6JwDXI3UK4CNAb7U+fJfFVfcMq1qZW1rdMNn2afqjhTyfzsUVAHjiOydYtThV55KlPY5gJUAgFPkboN9znaMXKIDVIvIiVK6rLS9M2f5ISWG6mlEHrCkxHfGfiuqlAPIdpFipFufs2VZUk2lz7cbPashrMWaaqD4CESd3/QrwFBC7tbbljfdQWZlRxz/RgvOairXN3gGVyZmwhNUmutTn8097b/LgetdJaGsssLpp1NzVpV4sVuc6hwMrIOZyYzpeXnzosLUA72bpjuDMxjHq4WZADkBPr1kpolBdD+DtqMiZy8qKPnC9/y4Fqj8Zq9J5twDfRe/cWdYJ4N9W8aslFcUzXe9/qgvMaS6RePwYqE5XSe8Rq22IwUhl3ZSiF10Hoa3xEmE3+WKxk1xncGQE1D6j8aw/ls5sPNJ1mFRXe1jJ4ra84qNV5RQAIWz6EO4prxirp+ZZOy3TiysAqKsYuMivHUcp9AwI/gagp+YZWgH+A5ULrd87ksVV9+z28if9S6ubTkI8/icFbs3A4goAfLDg+TdJcQSrmwKhxvp0X+z360lUoK93iv/EZWWDVrlOk+rGv6P+9o+b9rGe3grBvgnc9Bui9nK0rn2rtjIY5ajj1oJVmmXzGitEzL0AShK46TAUV0eN/7llUwZuYP+i7tmjOrKbT/RRQL4LqM91HsfCdeXFifxbpQRhgdVNgVC4EUCx6xzJQIEmI3KrFfun+reK/4vpYl1nSnWBmc3fEs9OVbX7wMguUAwFMOBrfk0h+ASqTQBWQPCmVZ29pHzIO673J1WMf0f97ZHmH8RhpwhkL0B3hshQqPq35/cFskqh/wVQq0Zm79S/c/ab+6Vn64veNGrWqm/4jHciIGcqkOc6T9JQ7FlXUbzIdQzaEgusbgqEwp8C6O86R5J5V2EfqC8f8qDrIOkiWNXUR7JRHPeihcaY/qoYq2Jyjeoe/3uOCj6C6joV/Y/EzHqIWWOthJdMK9jgOn8qGzWrYbAxpkRUigS6sxUdbiAjv/g8hTZAsUIMVkC9RqAlXFu+K28ESYCxMyJF1oczFXoCgBFIxgWZHRLYs2rLhzzgOgdtiQVWNwVCjW2AJHlXaDcUusBAzkHLmn/XVo7JiNv/iShxxs9qyGszZk8VPALFGNd5kpc+UVdekqnzgZMWJ7l3m6RHZ+AeIJDxCq1Bn8H3lFY3jD+mKlmaahJRsiud1Tix1chjCvyNxdXXEDPUdQTaWqZPDkwEjgJ+JRmoqqeLmKmL88IPQXU6J/gS0ZcJhpqKFXorgApA+4Pn2K+nWuo6Am2Nf7jdFAiFWSx0zUKB3piVl/Pndyft9KnrMESUHEbNWjnUL9kHWbG/QJIvip6EeCdhEuIlQupt4xTycEdr+x/G1kQOcR2GiBxTNcFZDT/2jL/Kin0YLK4oTXAEq5s4gtUtMUAeljy5pHZiQQsvHaYx1R071/BvIn2pypi5zbtrXH+v0O+6jpPSRBrryoqGuI5BW2KB1U2BUNiCx7FbBPhQgXttzHt2ybSCBtd5KEFUZVT1miGeF9tfVQKi2qUlgFTQLiL1iMubdVML33e9O5Q4Y6sbAnHIj1TkDAEKXedJeYL5dWXFk1zHoC2xMOimQE24DQq2aei+ToHUxq29ccnUkj+5DkPdFwhFDgb0JgBBADu2mLJqJ0RWArgnKkUPLCuTDtf7RTsuWKVZtk/TeaI4C6q7QjhNJTHkD3XlRSe6TkFbYoHVTWw0mmhiVfECRH9RnFdUN3+S9NS6cNRDglWaFc+LHG8EjyRws1EAl0Vlw33LyvZgkZVixs0N53fEZS+jej+APV3nSTciel5tWcm9rnPQlvjtobtEWl1HSC9qRPRoAV5uag3fXBpqHuU6EXWNzW88xYjeluDN+gHc7Ne+V4+bG853vY+0/YLVTQfEovKgUcwGi6ueod7rriPQ1lhgdZfVFtcR0lSRQi4Ujb1RWh0+z3UY2j6loYbjBOZuQHbqgc37AVwajeICTFeeu5Lc6BnNfQPVjfcp7Fw1ehygfV1nSlPNtW8XLHQdgrbGS4TdVBqKTBfoda5zpDuF/lUUt28YGPvrKi6am3RG1ryf7bN9TxLBA+j580qnqFyVq/H7FkwdwhHkJPPNmsaCdjWHCjBdobu5zpP+5Im68iIuk5OE+C2wm/yKJ1xnyAQC+T4Ef+j3qf+ZwJzmb+3wbf/UI/za9wQRvQm986UtS0VvahNz1b5v6I5NnqceEZjVWNZu8TygD7G46gWKOERrXMegbeOHVAIEasKvQPED1zkySAdUb4yarLuW/XPgRkwX6zpQppo4T32RtvBxUHm8119cJGpULyvIK7qHN0M4VFXlje1z4Ig47E1QOcZ1nEwiQH08Fj98ybShS1xnoa1xBCsBVPEIgE7XOTJINkR+4bedfw3u3XTabi9/wLs4HTimSr1wa9NPoeLm7iVVvwV+3dQavipY1dTH9fHIOKoyZkbTyED+96bH1c5jcdX7VPFGn3Djh65z0LaxwEoAa32vKvQ/rnNkHJHxCr0jpzN/fiAUORhVVZ7rSJlkUW74x6J6GwCXk5ezVHEl8vXi8e+o3/UxySSBmshPrS/+CiBXAjLcdZ5MJILfLThjQtR1Dto2XiJMkEAocgmgt7jOkcFaVfCkjds7+paUfLBggvCk00NG1mi2XyMnAHjIdZbNdBrg8nUt0QdWVfImiJ4yYt7ynNyWvP0h9hpAvuc6T2Zjc9FkxxGsBNGO6KOA8Dq4O3miON1nTKitKTJ9ZM2aLi3LQtvPZxtPAvRm1zm+IMsCN/fv47+KfbJ6gKoZM7Nx79zWvAdh9BkWV67Jkrj1rnCdgr4aC6wEqT9y2Brr0ykC8LZxhxTYTRVX+jW6MhhqrOTdholVGgofJ2IeBGSg6yzb4LeKy2IxvYT/7gmkKqWh8NXWyF8BPRGKQa4jZbhOQO5ZWjGI67YmOZ6EEqw0FL5CoNcCwvUJXVPthKAaau6XXQtfrR0jvBFhBwWrFmfZ/MGnCOxdgGS7zrMdHu704aoPJhc3uQ6Sqvaat3ZAZ0vHkSo4G8B413noczN8mnPKexUD1roOQl+NBVaClb6wapBk+x4HUO46C33uE4XOlHbflXVHFTS6DpOKRocaTzEqt0MwwHWW7aSq+kRndvb5Hx48cJ3rMKlk4jz1Nbc2H6SwV6vgG1DwDs3k8a7ATKktLwy7DkJfjwVWDxg/S/NaTdNsQA8Aj3HSEKAFaq6wOTlP1R/Ub43rPKkgWLU4K54/8McG8qjrLDtG77OxdZcvmVa6wXWSZDf+HfV3rGoojvu8ayA4AQBH4ZOJYJmoOaa2vPBd11Fo+3AOVg9YMFVafTZ+BhR/A6Cu89AmCuSr6O3S0fJisDp8+vhZDXmuMyU7mz9408hVypKzxbfT3WNnRIpcJ0lm36zZUNAaiVwb93l/g+A0sLhKLoKVGvdOq337Pq45mEI4utJjVEpf+Hggsn0zBdjPdRr6IokK7OtqvTPqpha+7zpNMioNhY8T6KMpMufqq1gofp9XXHQm23dsLVjdcDzEu8lCSwRgL7mkI0s9n++gRZMHrgKEX9hTCAusHrbpcmH4VsAcDyhbByQdbQfkNmu8J5ccOngphCewkTWa7bONJ226WzB9qOJBq/bqpVOHrHadxbV931iZu2519nj14hdCzFQom7QmoRhEZnnAJYvKij5wHYa6jgVWLxj3RDg/OhBTIXozIDu7zkNfJHHALlMxT3X6/Xdl+qToQCh86qY+V0nZiqGb9AnNzr8ok+fgja2J7B5XXAvVcghbLiSpj0Vws5jcPy4+tP8nrsPQjmGB1YtGPLY8J68w9z5VHAPhnTnJSIB3FeZ8GVHwj0xr63BMlXqLcsM/hnGwcHOv0gdkRPH5mfXvqzJubiQvZnEeLK5WgM1Yk5J2AOYtRfS0+vJhS12noe5hgdXLJs5TX9PGyIFqcDo2tXLgiS7ZCDZC5QWJy0OFfQv+MX+SxFxH6mkT56kv3Nr4U1FzW0YU/4pHvbhcuWhaUcR1lJ6214vLB7T7c6aJmNOh+h0Ib25KUi/D4NG6KcXPuA5CicECy5Fxc8P50ZjsJ8CjCh3mOg9tRQGsEcEzsVx7/dJJ6T1vJ1DTeCKs3AtxunBz71FYhT6R5ZdzF04ubnEdp6cEQ017KeydUOwDQa7rPLRNH0Fxg/FFX1x86LC1nMiePlhgJYFgdfhGFRwHYITrLLRNy8Xaa8Qfn7340OFpNR9iZM372X7tm2wLN/ciuS87L+uqdyft9KnrJAlTVeWN7XPgiJi1Z4rIuWDLhWSkACIQ1EDtL+rKh3zkOhAlHgusZKBqgrObvwHV4xX25PScXJziBO1QvKawD8akpXpZ2R4driMlQml1+HQRvSmj/+ZEHu/09NJ0WFZnt5c/6Z/TGb0Q0GMVGA2e45ORhaAKau/PW1Xy5oIz2DokXfHNl1wkOGdNUOPRZwCMdR2GtkkB1AyMFf3o79MkpbuDl4YajhOYJ8HzAAA8XFdefJrrEN0RqI4cBMETgJa4zkJf6iON60n1U4tfZUuY9McTaxLat2pl7rp87yRVOQUi+7jOQ1sToAmKuzqN/4llZYNWuc7TFcEqzbL5jacIzN0AslznSSIpt0D0+Aff8bcOHzYeigsAHAH+eyYnwWKBPB+Lx+9hH7bMwQIrWamasTMahsZ85lgRcwGgQ11Hoq3EoLpERK4qzCsKpcrdhqOrwz8xorcBspPrLElH5PHs3KwLUmVOVqCm8RqonAWAo1ZJSTtUzD0S7/zd2LZhHz5XKXHXiaj3sMBKAWPmNI20cXsrgO8DYDf45NMuYm5ALu6unVS40XWYLzP+HfVvjISPT92Fm3uL3Of36aVJe3ehqgReWF2M7PjDEJS5jkPb1AZgscCcxsWZMxf7oaSAxYcWLpOWomON4HiFzgEXkE42Oap2um2JPzZmTtNI12G2afp00xppPNfApPDCzb1Fz+6M6r3JukD06JkNoyQn/kcIJrvOQtsgeFMU50bF/wMWV5mNI1gpRWXcE5G82CAcZEXuFWX/rCSjAN7ysuXwRQclVwPLQChyL6CnAkj1hZt7h8LC4PeyS9FZydTxvfTFxhEmC68qZBh4/k4uio0QXB0V/2PLpgzcwEnsxDdoigqGmooh9kqreoRsOtlS8vhHZwemfXCk+8nSwXlNfbRNr4Hqpa6zbEXQAMhqVVURDASkBKo+17G2pA9odv7VybB2YWBW0x6Q+DMQ+ZbrLLQZwRqo/kUhv6wvL37PdRxKHiywUtimZXfC34IxZ6ngx1D1u85EnxF5Lgp7zrKykmaXMQKhyC2Ano1kWZJJoFAsBvQBsXjb+tAkVlUVgwEZKyJnAviO65hb0ifiVn/u+u6vQChcDcihgHqujwh97s9QuTVq1r+WLr3xKHFYYKWJUbMa9zFGngawiwA8AbsXV+Dq+vLiX7t48fEPvuNvGz7sN6o4z/WB2IyFYB6Md0LdoQWN23rCiMeW5+QV5NyiYs4Ckmc0SxUP5hcXnbdggoOmkKomUBO5HcD5ro8DAYBYQD82wGWLy4ufdp2GkhcLrDSyZ/WnO8Wl4xSreqIIvuE6D+FT1Xh5fcXQN3rzRUfMW56T15p7nQIXImnmXGmnwjxVnFd41vxJ0v5VzxxZ836/LO1zncKcByTRqKyLBaJVJTC7aRpUqwAkz7HITApgBSB/UmPvq59SssJ1IEpuvIswjbxXMWBt7duFd8ZMrEJgbgLQ6jpThhtgxHtxr3lrB/Tmi+a25v5aoRcgaYorACIveF7Oz7+uuAKAZWV7rG9tar/KqP0lgOTpLSY4OebDr4Pzmvr01kuOnB0eLKrngcWVeyJ/gA+H5a1aeRWLK9oeHMFKY6XVzeNF7K8B/TaAvq7zZCpV/GrP1qJre7rJ4Li54fxYXKar6sWu93kzUYiEBmzsPO7NyuFtXfnF8bM0r9VrvlJt/CIRyXW9I59Tva8jO/vKDw8euK6nX6o01HiyQB5zvcsZLK7AP0T1prqKkpDrMJRaOIKVxuorChbk2fg0I+YnIvK66zyZSoBp7+Y17dLTrxONyzWqepbr/d1MTIEn8zb6T+5qcQUAC6ZKa1FuwXQR388AfOp6Zz4ncnZWR8ddu88NF/bky+z28if9ReQ617ubsQQLRcwF0t5+DIsr2hEssNLcgqlDWheXFf6pMLd2klqcDsha15kyjkHQg5b35EsEahrv+6wVQ3LcLQhAoa/kW3vugsodH+mZP0lidWWDH1HBpdjUHTspiMiJWTHcCNUeuwqQ0xm9AIoRrvc1E6ngnuzc7ANrywrvrTtqRGP3t0iZiJcIM0ygOjwWwAUwmAKgBMq/gV6yMG9V0YQFZyT2LrRjqtRblB8+E2LuTJ4eUtoJSNWAlujpOzJytS0T56kv3Nr0M4Feh2RaLkr1vqgpvmhZmST0Fv3SF1YNMtm+VxTYy/UuZgzVNojMFOCO2vLit1zHodTHEawMU1dRvChqis6xiFeKyguu82SQcRuHhvdP9EYX5zQOhchZyVNcAQCe1Y7YBYkqroBNI1l7thTepWp+poIen/u03UROzzKRQxO9Wc3xfUMVw13vXsZQvOmpOdzGvNNYXFGisMDKQMvKpGNJ2dC/15YXHQ2DHwG6BIB1nSvdGYOTEn5JyZPvQzHG9b5toh0QmT2gJXZG/ZHDEt75/LlKie/ZWvCkWExH8lwu9GkcxwWrNCthW1QVD+Y7EAxyvXNpTWEVaILKtRtaoz9YNLXoz0umFWxwHYvSBwusDFc3pfgZieshYvUGQJe6zpPWVL4/dmZTQidGK3CU6936TIsIbq4rKyxP5MjVFz1XKfG8j1f9FioXA/Kp653+zIhY7pqCRG1s/O8W+FR1vOudSm/6CQzuFmv2r6soumFVD/7NUuZigUWoPWzIf2sXFP8C0EMUylvCe4ogDznYPcEbLXG9W5tiyL2d2PgroOcXuF1wxoRo3TuFDwjsRQBaXO86FMOMiQ1M1OYiOxX5ABZYPUUEfzUx79uycc1ldVML33edh9JXMs3bIJemi60DPgLwk9LZjU+IlasA/R4gibv0kekUfWxUSwH0amf3HhYT6N21ZcWX9+qrThdbOE//0NTSNAiCm9TlsjoixmcSd7NIv/xYf4W/x9t6ZJgogMUi5p7WSMtTK07Z9Wsb3hJ1F0ewaCv1U0rmR0WPM5CTIfIv13nSSJZCE3YpKTnoG4B3q4tXnj9JYoX5hXeq6hOuj0JC2dwkmVOXHgS6CopL49ZXUVtW+CiLK+otLLBom5aVlTQvLi9+Oi8eP0BVboOgHZvW4qIdJwIZNv7Bd9Jl2ZOoqvyxtrww7CrA/EkSEzFXAfjE9cFIFBWd4DpDmogC8jRavEBdRfGdS6cO/th1IMosLLDoKy2YOqS1vqLoElXsA+CPUPAum25QQU7bTrnp0nus3Qf7musQ61s61gkwx3WORBEjydPnKwWpog1ACKpH5BUVnlRbWbjRdSbKTCywaLvUlxe/Jy1rzhLVg0Tk767zUDLQaHZxyTLXKVZVDmuHqvMc5J6o1nmqJ/q044S6ipLQggmJbexL1BUssKgrOuNZ0qxq3/vsWyJlMhFdUI0eXcCaqCtU5IOoDx/FWze6v7uUMh4LLNougTnNJZo/6BoTk5cBOVMEua4zkWMK39i9Goa6jjHisRXZagzvuiMAqPCszLT5g+4Ozmwc05NrRRJ9HRZY9JXGP6j+YE3kxxKPvwvFlYAmuI8TpS7Nsdn+77hOkdPfnw/VvV3nSJS42pWuM6S4YhE5XT3z90BN5Geuw1DmYoFF2xSc19SntKb5wJZhkedV9VEFCiH8e+kugayqPSaYJvNCJEvj9ohxc8P5TmNk+04DEHR9NBLFALWuM6Q8VQG0P4A7A6HwW8FQU6Xzv1PKOPzApK2Mnt08Gq32QbHx5wWYCoDNRhNBJKqCJkjPdzvvrT2CYFpnTI9xFWBMTdPRAlzt+kAkknbYxVDtdJ0jjeyj0IeiMakJVjccgKoqz3UgygwssOhz414IFwZD4cs9G1+gwHFcbDbBVNsg9iPXMRIsTyCPlYbCx02c17vd1AOhyMFW7b0A3I5MCGzMasKK5vadoi0C+dDpPqUd7Qfo91TMXwL537t11KyGwahSFlrUo1hgEUbNahgcDDWdHM3CLAv8Ul1/YKUrkRa1vgS3E9BG17sFAAK9p7E1fEJvvV5gTnM5RH8HoMj1vkPRJLDrE7W5ERgRs8AC17uVpvwALvQ8781An/DFI2sa02xlBUomLLAyXOnsyL6e581U2Psh2EcAfqvrKarL61sGf5DITQrwvOvd+izJQKNy9+jqxh6/XBioiRyOWPxJKEa43utNdEWeRXOitjZ/ksSg+g9A2AKjp6iOhMoNfjX/HlvdcGRvj75SZmCBlYmqqrwxsyLfCIQivxVr/wrVfQHkuI6V9hSPojKxH5pGzGvYtEi3e4I+RqSqtLrxpGDV4h6ZtxcIRQ6G6l0QDHC9u/+/2zpzwdQhrYndqPkXoKtd71ua8wM6NA5TFWkJP1Va3TB+WNVKtp+hhGGBlWGCMxt2DuR/b7o1+jygZwHCwqp3fJSn9ulEb3RwbuFHKnIPkEQNPwW32ryBlyd6s6WhyFEieBTAzq53cbN9fdHnk6pEbzZf4+9C9X3Xu5cRBB5EjoGY2X3ys+4YWxNhKxpKCDZhyxRV6gX7RSrUyn1QHeI6TqZRtb+qrxhyVU9tP1DTeB9UzkQSvadF5De1/yy8FNPFdndbY2ZHJlurTwEY6Hq//n8HscJnc771XsWAtT2x+dJQ+EcCPOV6NzOS6jl5qr9P+MgkZZSkORlTzxjx2PKc3IKcHwjkdBUcCrZccEA/MlGULT68pEf7GwVqIr+G6rlInpsU2kXkFmwsvLG2Una47cBnxdUDQLLMuQKguhhGTq0rK/5HT73EiMeW5+QW5rwByDdd724GsoD8XWDvzcrL+fO7k3b61HUgSj28RJjG9qhuCOQW5D4KkSdUcBhYXDmiL+VEPu7xyz1+T28Qkftd7+1mclT1Yu3TdMOObmBMKHKUVf0jkqm4gn4EyA/rphS91ZOvsuKUXds9yLUAOIrS+wygByjksY7WjudGzW5Mm5UCqPdwBCvdTFcT3Lu50EKPE+i1APq7jpTRVNdYK3svOax4eW+9ZCAUvhPQM5Jpfp0IfrV+Y/SXqyqHb/ci4YFQ5GAAjwHqfL3DTTsBhWq9wnd4fXnB0t54yd1e/qR/dkfnYxAc4Xr3SW/xxPxu0T/vX47p07t92ZvSHwusNLJb1Qf9s/v0OQ6qJwP4FgDeeuySoAVxraybWlLTmy87Yt7ynLzW3OsUuBBAtuvDAABQbBQjt9eWFV23PU8P1EQOh9q7AEmmCe3L1MpJ9eWFb/ZmN/7RNZHvGkXos6VfyB0V1SXWyB/EeI/VHVqQFD3oKHmxwEoTo2Y17uMZuQvABLCwSgoC/Lq2rOhKF0vjjH/wHX/b8GG/UcV5ro/DZkckBtF7i3KLrpg/Sdq3+ZTpasbs03yktfahZGrFAMFHMN6+dYcWhAH07r+nqgRrwsco5FnXh4EAQOIK/UiMnlc3pXe/PFFqYYGVwibOU19TW8OegHeKKk5HsoxWEBT4q3je8a6/5QZCkVsAPRvJM/FdAXnFqt4Li/da2qPhVZXD20b/uXkIYnZXAQ4X1bMB5LkOuplFHrxTFpUXvOMyRKA6fAcEZ4Hv86Qhgj9aeA/lFw5+Y8EESZNF3ClRWGClqGCoqVihFwF6NBS7QHjDQhL5h/HMCYsPLUzwsjhdF5zX1Efb9BqoXuo6yxe0APgQiiYI2gEUY1N/q2RbuuQjVe+o+vLB/3K9SPe4F8KFsRw8rIqprg8KbSGi0BovFvvV4mnDnb/nKXmwwEopKuNnNea2wjsEBrcAuofrRLQZgULxTy9bpi06qCjiOs7mgjXhe1RxBjatxUZfZ9O/5TJ/e+z7C48atsp1nP8Z90Q4v3MQ/iyK7/BLVdJZB9Urbdz3hyWHDd7ouiAn91hgpYhglWbZ/I8PEfh+CmAa+G+XjKoVuLK+vPg910G2Ml1NcO/Ijao4HwIuB/I1VPEfQM6uryh8E0iuD8rSV9YPQkfLbQI5Dmy9knQEmGdVHzet3vO1lYUbXechd/ghnQLGzGkaaeP2VohMgmo/8N8t2cRg9Y6OttYbP6zcfZ3rMF9m2Bsrc/uuzboR0AtdZ0lyf/NicuyiwwqbknUUYtzccH40LudA9WbXWWgbVNsgeFvgnV9bXviu6zjkBj+ok5WqGTujYWjMZ44VMRckTS8g2lxMgGUWenNxXvGT8ydJzHWg7REMNf5GIWciuSaSJwUF/mpzfCcu/cHgj11n2R6BUORghb1RIGyEmZS0Q8XcI/HO341tG/bhcwle7J2SGwusJLRv1crcdfneSapyCkT2cZ2HtkF1tRpzj9/iyfcqij50HacrPhv9uEZVLxbAc50naai+Do39pG7q8NRZZHn6dDP6W2fuYnxyDKxeBEGR60i0DYLFAnk+Fo/fs3TqkNWu41DvYIGVVFRGhxrHGzG/h2KM6zS0TQqgJm6jZyydOjwlRjm+TCAU+S0EZ0GV5wHV1+sqSg5wHaM7Rs9oHiK++B8EmASe25PVRxrXk+qnFr+arJefKXH4JkwC4x98x9+6yy57IhY7FYJjARnoOhN9gaAdirdgcf+GtujMriz5kswCocabATkHydMnq9cp8Fex0TNTauTqK5SGIkeJ6hkQ+T6gHKFMPhbAn1T0vvyVxW8sOIP9s9IVCyzHglXaB/mNVynMjwDs4joPbVNYFFd1Gp21rKyk2XWYRApWNfWxfeLXicrFrrM48re49f146dTUmHO1fVRKX9kw0HS07q+KOyDY1XUi2qYIgPlA9mV15Tt95DoMJR4LLEd2q/qgf05+3mSF3A6AE9iTzaaFfdcqMNPm6SVLJ6X3vIlNC0TjDABJs0B0D1MB5tuO2DH1Rw5b4zpMTxk3N1wYi+IGNTgKioHgOT8ZRaC4Kq52xtKKkjW8dJg++GbrZSPmLc/Jac09SFTPgsiByOBLM0msE9Bn1eLR4j7Fr6fK3YHdMbLm/ews7TtdoRcCkv5LsQjmq3pn1JcXLHUdpTeMnd040VpzksL+KCP+fVOQQv5uDB5oDbf+acUpu7Z3f4vkGgusXjSsamVu3zz/oxBMBQur5KRYDsjpsmvhq7VjpNN1nN4UrFqchfxBtyrwM9dZepa86vdp2cLJxS2uk/SmYJVmaZ/It2DxEARjXeehbeoAsESB45OyYTF1CQusXhCc19QHrfFjFHILgMGu89BWLIAPIPJCh99/04cHD0zaZqG9ITA7cgtsUi0QnTgif1HJOrV+yk4rXEdxZa8X1w7o8HeeB7E/BmQk2KojGTUD9sbODvP0B0cWN7kOQzuGBVYPGz9L89pM5F5VHANBH9d56Iu0XYD7JIpHFk8rruP8h88WiG7Va4CkWyC6m+RV69OTl0wuXu46iWvHVKlXn9u4R1TMCWLkHKj2d52JthKD4M9WvIuWTClY4joMdR0LrB6jMmrWmiGeif0JwHdcp6EvkqiIvouYnlJ7WMli12mSUSAU+S2gpwPwuc7STQrBqxs2RqekS3uNRBo9IzLOeHo7BAeAaxsmIVnq+XwHLZo8cFWyrYtJX42rsfeQPWc1jvaZ2LMQfNt1FtqcxAD8Q4yem+vPOpjF1ZerKy88Fyq/AdDqOkt3CDBf1TudxdW2LZlWtLAtv6gCirMBfdV1HvoiHRWPR/9eOmv1gZg+nZ/ZKYQjWD1g/CzNa/WaXoPqN8FjnDQEaFHVG6IGj6ZbP6ueMn5WQ16bkRsUcpHrLDtEMD8KreS/93ZQldIXPx5osv3HKPQXAApcR6LNCJYhHi1Ll4a4mYAf/glW+sKqQZLtexxAuess9D+6FiJ/hs9cU3dIIU9OOyAFF4hWADU21nn6kmk7N7gOk2r2qI7s5hm9QRQHQzAYys+KJPFGVPRwfmFIDRxuTDCT4z8Z0B+4zkEAVDsBDak1P7RR7zQWVzsu1+o1ULkHQKr0BHuk04efsLjaMe9XFH1Yv7HoRKgcB8hLrvPQ5/bzq9w7ekZzX9dB6OvxW0kCjalaOVDz/Ss1db7lpzUROT63sLBqwQSu9ZUYKoFQ072Anu06yVemVDxUX150Bu8ITRBVKZ3deLCoeRxAses4pO1WzKlLyor+6DoJfTWOYCXIblWf9Lf5vldYXLml0FUCvV1gSmrLiv7I4iqRROvKi87Bpn5uydmkU+TxaCeuZnGVQCJaXzbkzwLzTRW5DSLLsOkSLDkhOZ7VS0bWNHKOXJJjgZUgWbkdJwDyTdc5MlgUwMOiMqVTNl5ZW14Ydh0oXUme3AAj97nOsRXV+302+0I2ZuwZteWF4fqyokvE2MMBPOo6TyZTwZ5+mJ+7zkFfjZcIE2DUrJVDPfG9AJF9XGfJQJ0Q/BcqZ9e1/O2vqKyMuw6UKYKh8F0KPcP52nYKq6JP5Fs9Z8HUISndUiKVjKmJfNcqbgPstwBh/ywHYiq7v19R9KHrHLRtHMFKAA9Z+0AwznWOzKNLAHt5x8aWCXXlRS+zuOplLWsuEcgdANwuTGvwe1/MXM7iqnctLiv6e9zGpwJyDkT+BQjff73MJ/ozqPJzPElxBCsBAqHwSwCmuc6RQTpg9e7sWM6v3v3PgPWYLtZ1oEw1sub9bL/2vRnA+U4CqN7f1tx+0YpTdnVb5GW40hdWDfKy/OdY0etdZ8koIv+SWPyI2sOG/Nd1FNoaC6xu2rM6sltM9APXOTKDrFfYNyQu19dNLXqLE5mTR7AmcquqnoVeXSBan9CO+EX1Rw5b43r/aZPS6obxIuYSQCYDOsB1ngzQomqPqq8YMtd1ENoahxa7KWbkGNcZMoLIP2Bwckw2Hlt3WPE/WFwlmY1yPaC/7a1/FwUejAouZnGVXOorhiyIyobTYeXHAP6M1OmblqryjZiJrkPQtnEEq5uCoci/FMq7B3uGQvEJDO6oKyu+0XUY+nqBUOS3Cj1DAK+HXsICeKwor+jM+ZOEH95JLLhYs+x/IydLHLdBkA9+oe8ptXXlxWNch6Ct8Q++mxQodJ0hTUWgeNgY/R6Lq9RRV150jojchh5aIFpV/+DF5CoWV8mvdox01k8p/l3UyDcVeieAiOtMaSpY+sr6Qa5D0NZYYHWX2hzXEdKLWIXOQTxetqE1ev7ispJa14moa/ye3gDg9sRvWe+LmY0/WzStiB/UKWRZWdEHpuWTK3zIOliAJ13nSUfa0bq/6wy0NV4i7KZAKNwKINd1jpQnEoVqvUBv75Tip5eVSYfrSNQ9gVDDCRDvKgC7QdW/QxtRWBFtUJXH89T+iq0YUlyVeqX5jYcLzNUQGbPDfxe0JZFr68qKbnAdg7bkcx0gDbDBXvc1quo9MPp03ZSSFa7DUGLUvV3yx1H7rnnbi8f3EcV3VXRo17YgLRD7D/X0b0XZSxfOnzSJlwVTXaXE64Hnx86IvB736XECnKPA7q5jpTxVzsFKQhzB6qZAKMy72XaUwgJaFTUbz1g2ZeQG3hmYxqarQbCr55vngMpKC657l55UZfxza/u15kd/DeiZruOkNJUX6yqKjnQdg7bEESxyQNsV8oYn9tacVSV/WXAGF2ROe2wGS18koguAdVA9u3RO+FlR+RkUh4JTLihNsMCi3hZRyIWelzt38aH9P3EdhogcE9F6YP7oGc0LfP74RFXcoMA3XMci6i4WWNQ7VFcD8mRdedFFvBRIRF+0ZFrBBgCzJs7Tl5taI9cpcCoUAyG8251SE/9wu0vBSx9fRWQdgIdVzWFjW4suZnFFRF9l/iRpry0vvkJgDhbofQDWu85EtCNYYHWXgO0Evtz7CjNNWorOqZ9a9OZzlRJ3HYiIUkNteeG72LX45/CbCVCdD/DL7JcRo++4zkBb4yXCbtN2QDgpc0u1UH2irqLkZtdB0sWIectzclsHFMVNe6Hf6iAFRiikL1T2EEGuBVoE+oGotFtjl8B6GyHR1RrLbvzs0gvtoPHvqL+tobFEoYONzxsQU4w10GyFDDPAQIVtt4oVomiDYIUR83HceJ9GN6wPf1i5+zrX+VNZ7RjpBPD+uLnhilhMTlDoOYCOAoTtcTZjFctdZ6CtsU1DNwVC4QYAJa5zJAMFmqDyW/XMs0veGvw+7xzrvuDLn+yMjs7jVbAPgF1UMET0a5dnUkDWidowjPkIqv9W2Nl15UNedb0/qWTsSx8Ptz5vigq+D9E9AFMM1cH4ut53qmtgzGqo/leBd2Bjs4r7vP82+3h13+iZ4V3Fw7EC/BzAYNd5kkXc2oKlU4esdp2DtsQCq5uCoXCdAqWuczgWU+AtT/R0Lm3TfRPnqa+pIzzaxsx0ET06gZt+TwwuxIY1r9VWBqMA58N90cR583wftwR39gmuB/QYANkJ2bDKv6zam7zdimd+NipD3TBmzrqBNt76EMRMzfhu8IJldWXFe7iOQVtjgdVNpaHwFQL8ynUOVwSYB5FHWiOtz684Zdd213lSWbBqcRb6DjpArZ4EyJEA8nvkhRR/gZEn8uKFf1owVbj0DDYVtZHWxv0AcyIUx0LQJ/GvIjGofVMEj3ma+9J7FQPWut7vVDbiseU52UU5FR7MqVb1e5Kh/bNE5De1ZUUXu85BW2OB1U3fmLV6aKeJrXKdw4EwgGuiojOWTSlezbsDu2dkTWOBX+UeQA8GZGAvvGQrgIVQnFZXUbzI9f67tNeLywd0ZufeoIpjART0wkt2QvAGgCvqyor/4Xr/U92e1Z/uFPPaJyOu90JkkOs8vaxdxBxZW1Y423UQ2hoLrAQIVDeGIFLmOkcvaYbqPM9vL140eehK12FS3ciaxgK/xTEQcyOgAxxEaDbGXNKSU/DsikmSUSOQE+epr3lj0xhr9D4A+7nIINDbLXwP1r89eBnnLHZPsKqpD/rEr1OVk9A7hbJ7qos9Y6YtKiv6wHUU2hoLrAQonR05Uqw+hUTN10hOMVV9yQPuyykufn3BBC5v0x3jngjnRwfZI6HmJyKyv0Kd3dGrijYReVQgv6wtLwy7Pja94Zgq9d7LCx8vItcD2MVhFAXkfYV9ytrYw0unDv/Y9bFJZZsu9TbvB7XHK3C8SHpfNlTg7uK8op/PnyS8gSIJscBKgGCoqdjCPi+OvgX3gmYbxw9L+ha9yjdy942sWTXMr96TgPkuHBZWX6AQeclGzUmZ0NYhEGo8B5A7kTStasQC9mOrcu6SiuKZrtOkvCr1gnmN+6mYJwCMcB2np9iYfGPJtKKFrnPQtrHASpBAdfgCCO5wnSOhFMtE8FxHB+784MjiJtdxUt3Y6tUBK7ETFLgQQI7rPNuiwFMx0QuWlZU0u87SE4ZVrcztk+c7W0Ruc53lKzyr1nvAtA1+o7aSdxx2x75VK3PXbvr3/gmAoOs8CaVyX11F0TmuY9CXY4GVIHvNWzugo7XjVQB7us6SAO0AHpS4PjSmvbieHdi7Z8/qT3eKou08EfwYkJFI8hUURPFoPO5dkI4jWYGa8LFQvR+QnVxn+UqKiBiZYdujv6k/cthS13FSmqoZM7d5N43FT1AxFwDaz3WkBHjP78NBCyfzi28yY4GVQIHqT8ZCOt8CkOc6yw7qUEi9JzhncVnR312HSXX7vrEy99NP/d+A4iEAY13n6YIOwPy8rrzwt66DJNK4mZ/uGvW1vw1FKt1p9qlArsjqbH3m3cNHrOPdut1TGgrvKdB7AdkbqdvWoQ2K8+rKix7l30NyY4GVYMHq8JUquBapNuFd5N+ieLBT1j+9rGwPLq7aTaOrGyd5IqeqyI+gmorvs9UCVNSWF7/lOkgiBEINuwCmBql5mSgG6BsQ84iNmhfTcWSxNwWrNEvzm44F7E+hcgAkuUeUv0hV/xQzWT9dVjaI5+kkl4on/qQ2vuqT/q35nVUADnGdZTuth5pfxTX2yNKKkjX8RtQ9o2f8d4jx+X8NmKmA9kdqv8eW+7Rj/HsVu6R0Q8zx77zjb40M/yWgFyPJL89+FVVtEzGvw8o5dVML33edJ6Wpyl4vrejf7s89QQyuS6FRzUUdWS37f3gw17hMBal88k9a42pWDYuq708A9kbyntA/EcXrMau/XHpYyduuw6Q0VQnWNBcBmKKw1yKN7lpSkeuKc2t/lcrr6AVDTXup2BAUQ1xnSQhBO6zcqmKerC8v4Pysbip9YdUok+27XCFlgBa5zvNlFFpv4ji69rCSxa6z0PZhgdVDRs8M72o8PAjgICTfcf6zAvdkrcG8hScWt7gOk+qC1ZHjAXuGiuzvOkviaa2NS8WSw4qXu06yowLV4acg+JHrHIklcYF93xrvcbR1PlR/5LA1rhOlshHzlufktOV8W6w5B7DTIJLV/a0mkGKDGHNs7ZSCuRA2pE0VyfbBn1YCc5pLJB5/TYHdkAzHWtFgVa9eMrXkMddRUp6qjJ6zepSx8d8D+I7rOD3JAucvKS++23WOHTFqVuM+npG0mEf25XSJB9/xi1rm/RuVlbzjt5tGhz6e5sE8ppABSILztgIfmiw7qfbgIf91nYW6xvkfT7obPaN5iPhivxTIsXB3d+F/jUrIqtzBuRvdVFXljelzwGhr8UMY81Oopsdlp6+iWOb3Y6+Fk1NrtHP8O+pvjTRVAXq46yy9wAJ4zMTkscXTeAdwdwVDTcWQ+FmqcgKAXV3lEJG5RnDpoilsJpqKWGD1gtEzmvsaX/xYAe5UIL9XX1zkOfHJrwr9BYvYhb27VAKh8MWAnAbIboB6rhP1GmuPrJs65EXXMboiMPPjb4nnm6HQYa6z9BIFEAFQ3enDVR+wR1K3TJynvuaO5hFxa38GxanSm20dFBsB/aXfL4+x11XqYoHVi8bWRHaPq94Fkf2h2r/nXkk7AbynkOn15cXVrvc71Y2bG87viNkDDMwNACa4zuOCQubUt/ytIpUuQQWqwz+F4H4AftdZHFgpwHniRV9bPHnYWt4d3D2jZjbs7xnvLkBHQdCnB1+qHSK1EtdLaxcUzeMC4KmNBVYvGz2jua/44gdC8UMRTAWQuK7CIlFY+3cRPAF4szNl4d6e8r+FY0Xt6RApV+gA15nc0ZWAHlBXPuQj10m2y3Q1gQmRByA4zXUUx/4scX2k9rCSKtdBUt3ImjX9/IhOEcWPFToZSOxEeIHMsaovavzTp5dMK2WvszTAAsuR8e+ov6U5PFSsuQTQHwIYuONb0w6I1KiV29rzW/+1YtKu7a73L9WNmLc8J7c15zbAnAjRPtCMf69ssAbHL5mSGgsRT5ynvqaWyHsqKHWdxT3tVOCv6MRZ9UeUrHCdJtWNrHk/22cHjBWJ/xzo9t2pnQr8ycDc2ikFdcumoJOjjekj0z80kkJwXlMftOEAtXogRMcqUGiAvirSD1Y//5YkRqyqbgDQAkUzjCwVizdi2jlv6dThH7vej3QQDDUVA3q4AhcAOtp1nmShQFyg59eVl6TE8jl7vbh8QEdWTiTRowwprhGid9qYPLfkX0Uf8fJT9wVDTcUWdpIA3wewM0QGw2o/AAO++FwRrFfoWkDWQrFcRF+J+32vLzmkoMH1flDPYIGVZEbWaLbnWz1IougDjfY1kuX7/5/GgLhujENa474Na5ZNGbmB33YSI1ilWcgPHw4x56nqBAA5rjMlG4HePqal+NJUWPx7dE3ku0b1ddc5kpEo/mONPlxfVnKv6yzpZNzccL6Ff6C2dfZVv7/vF3+uGmvxm9inHdHsdVzuKDOwwKKMNv7Bd/zrhw4f7hO9HZCpgCZr5/0kIH+QlsJTayul03WSrxMIhW8AcLXrHEluEQSnycY1/6qtHJP0/6ZEqYYfJpSxRs1tKG0dNvxGn+irAKaxuPo6Wtx/GFKiNYUIevAu3bQxForZmj/4jrGh5gnHVGVQ2xGiXsAPFMpIgZrwBV7MzAb0IgBDXeehBFOMcR0hRQwA9My42Jnv5UduCFYp56wRJYiv+5sgSg3jZzXktXvmOxa4FooDXeehnqMQ36a+m7QdDFRLBLhC8yJTA9XhG33ImftexYC1roMRpTKOYFH6U5XgnNX7tBrzqFU8x+KK6EsIxkLwcEza/hCY3VjmOg5RKmOBRelNVYI14ds0HvsbgGPRrX5jRBkhH5ByxGVWsCb86MiaNYlrhkyUQXiJkNLSmDnrBsajbUfJ7Mj5CuF8HKKuEhhVnOJHdFKwuvFeE7NViw4futJ1LKJUwREsSi+qZkxNeKq17S+L4C5OdibqthFqzE3W780MhMKnug5DlCo4gkVpYfw76m+NfDoENZGbLHA0oH52eSNKEFW/AnsBeChY3Xg0jHdFYW7Be/MnScx1NKJkxREsSnlj564Z3haJXA90/h2b1gbzu85ElK5UZDLUzom0RG4d81JjEKr8KkO0DSywKGVNnKe+4Ozw6fFY9D2FXAoo+1kR9QIFCiE43/plfmlN04Wu8xAlI14ipJQzekZ9X8kaNL6pLXI1VA4ElD2PiHqfACgQ6G8CofCxELlpw4DOuav2G97mOhhRMuAIFqWUMXOaRhr/gN+Jjc9QxQ8Uyi8JRO7tA9Un+q71Pxec07gPpnPZKSK+CSgljKlaOTBYHb7Sxu37UPwQAHvzECWXvgDKNY7XAhMivxhZs6YfCy3KZPzjp6S2Z/WnO5XWhE/TfP8cBW5wnYeIvo5kQXCVX6NvBveOnLvXvLUDXCcicoEFFiWtYCj87Zi014jiXgX2hvDvlSiFBBV6S3trx4LA7MayY6rUcx2IqDdx/golF1UJhCJjIHKOQs90HYeIukOyBdgNVmYsyg8/NWpWw03Wa1m+rGyPDtfJiHoaRwQoaYye0TwkGGq6VQQzAD3DdR4iShgfICd6xszxa78bRtasGuY6EFFPY4FFSWF0dfgw8cX/raI/V2A3gH3YidLQLoBe4lffomCo8eTx7yibAlPa4iVCciZYtThL8gu+r7BnKzDVdR4i6jX9FfK7lkj42NKayB0xrP/HsrI91rsORZRIHMEiJwKzVu5h+wx6ziL+RxZXRBnJL5BDRfFMFvo9Mm5meFfXgYgSiSNY1HtUZczc9TtprPUnKnKtKPrySiBRptOdVHF0zGhZoLrx1/H8/PuXTuq32nUqou5igUW9YtzccH7n7MhxVuUEiBzgOg8RJRcVyQNwndfaWhEMRR7ztP3Z9yp2Wes6F9GO4iVC6nHBGR9/MxrTv4rVewFlcUVEX8YDsI9C746ZnFcCc5q/5ToQ0Y7iCBb1iGOq1KvtEx5tVU5X4HQAubwaSETbyQ/VbyEe/3sgFH5Q4vpQ7dTiOohY18GIthdHsCjhRs1qGLwoL3yjVbwI4HwAua4zEVFKygHwM/WZlwI14V9z2R1KJSywKGGCizWrdFbkEM8z70DkMkBGuc5ERClPoDoSkEs6WjsWjQk1HRpcrFmuQxF9HRZY1G3j31F/oDpykC6PPAOjNVDs4joTEaWloRZ2pq4IP11aEzkkWLWYhRYlLRZY1C2BUMMureHIsxD7LARHyKZJqkREPcUPyJGieEbzBz68+9xwoetARNvCAou6bvp0M3rGf4cEqiNnAeYtCI4AZKDrWESUSXQnQE7IiqMuOKvhzLEzIkWuExFtjncRUpdMnKc5Ta3hHynkTED3cZ2HiDKcYqAac2/c2ONKQ42PZvnkuYWTi1tcxyLiCBZtt0B1eGxTa+RfqvIwABZXRJQsPEAOEJVHolGdE6gOj504T3Nch6LMxgKLvtbomSt2DYTCN0DwVwUCEP7dEFESEhiI7A/BfyKtkZmB6shBE+cpr9SQE/ygpK80uib8fc+X8yyAqwEUuM5DRLQdDICDIfpUU1v4mtEzmvu6DkSZhwUWbdPImvezx9ZEDjEW1arY23UeIqIdUKAqVxl//DfBqqY+rsNQZmGBRVsZMU9zfNr3ojhQDWEXdiJKaR4Up2m+fTI4s2Fn12Eoc7DAoq3ktkTOFOh1UPW7zkJElCDTrGfuLX1l1SDXQSgzsMCiz41/R/3B6objIbgDkGzXeYiIEkmAqdLhu2ZkjfL8Rj2OBRZ9rjXSNFHF3OI6BxFRDzrHL5FLXIeg9McCiwAAwSrNAvQqACWusxAR9SAfrFwUCEUOdh2E0hsLLNokP3I9gANdxyAi6nm6k0IvHvbGSt7EQz2GBRZhTE34+wpc5DoHEVFvEZFJfdb6j3Cdg9IXC6wMN35WQ54qzgCQ5ToLEVGvUfULcDubkFJPYYGV4VrgfQPQia5zEBE5UGRM7CzXISg9scDKePHDFFLoOgURkRNGjgiGmopdx6D0wwIrg42f1ZAnxpziOgcRkUOlIiboOgSlHxZYGazNmIMBFLnOQUTk0ABroxNdh6D0wwIrU6mKAue6jkFE5JyYia4jUPphgZWhSv+yYSAgAdc50pZiI4Bm1zEorfwTgHUdIj3pt3ar+qC/6xSUXlhgZSivc0MpgDzXOdLUQoWdCMgc10EofXgxOQzQy13nSFP52f367O06BKUXFlgZylpvuKrNcZ0jjcQBrQNwQVtT27frK4YsALTDdShKH4umFUXqyktu9URGQvEMgA2uM6UTE7P7uc5A6cXnOgC5oWKHCAybiyaCYI2xcrdV83Td1ML3Xceh9LaorOiDcXPDp8Y69HswOF8hB0Hguc6V6iynTFCCscDKUKKSz5Nyt8UheE0l+5TFFTutcB2GMsfCycUtAGZPnKcvh1uafyywvwPgByCus6UqEeS7zkDphZcIibpKJAro3wTmuKJ/1h1cP4XFFbkxf5LE6isKH4+KDlOR30DR4DpTqlJIqesMlF44gkXUJbrSKC7zfPKXhZMLm2pdxyECsKyspHn8O3rlhsbGR3ziXabQH2PTiBZtN93JdQJKLyywiL6eAlgNxSwR76rF5YVh14GIvmjBBIkCqIfqT4M1a15SRG8CsBsg2a6zpQIBmlxnoPTCAovoK2kHYJ4zggcWlxf93XUaoq8lYmuBGaNmNfzdeL4fitqzAXAC99dRLHMdgdIL52BlKBFZB0jMdY4kVyueHpxXVPiTxWUsrii1LJ06ZHX9lILf5lk7QWDvZtuQr6aC9a4zUHrhCFaGskCzqEYh/BvYnAJxAO8bmCdMTB9dVD4k4joT0Q4T0QVAK1QvKK1uekaMXiaQAxU6wHW0ZCOib7nOQOmFH64ZynhmlcZtB4Bc11mShQCtELnHwD6xuKyQ89cpfYhoPfBmsKrpeM2Nfw+CKyCyv+tYycTGzQLXGSi9sMDKUNk2Xt8Bs5HfZAEA7QBeEy96du2hwzkPg9JWbWXhRgA1+1atnPdpvu9cwFwIaBEyfrqIrKufWvSm6xSUXjL8TZW5/l1W0gxgkescjnUC+JsCP+loaTlmMYsryhBvVg5vqysvuVU8e7AKfgug0XUmp1T/6joCpR8WWBlMxT7tOoM7EofqBXFrj64vL376w8rd17lORNTbag8tWRzDhktMVA9SYBYA6zqTE6J/cR2B0g8LrAzmXy3PA7LWdY7epash8rigdVhdRcn9S6cOWe06EZFLy8r26Fh8eEltTDYcI9aeCOgCbBrdzRDysQUnuFPiscDKYAtPLG5RtY+6ztErRKJQPKMGx2zY2HlWbfmubBZKtJllZXt01E4d8kcvao9QyBUKfOw6U69Q+59sn6lzHYPSDwusTOeZ5yHY6DpGjxEogE+NymF17xT9uH5KyfxVlcPbXMciSlaLDh+6sr686PaYbNgd0CcApHm/PPuHzxbPJkooFlgZrtPnr4UiTecf6FJVvd6nObstLi+cg+mSmfNLiHbAsrI9Ooryin8qBocCCEHT74uYAG9FTeuLrnNQemKBleE+PHjgOrV6p+scCdYBkZs9MWXFecU3vlcxIMPmmRElxvxJEqudUvyXqPiPg5ETALzvOlMCbQBw/rKyPdjhnnoE+2AR6qeWzC+tDv9OBKcBENd5uqEdwH+MyM8XlxW+AYi6DkSUDpaVDVoP4CUALwVD4ZtUcCIUQ1zn6gYrgsdzC4v+5ToIpS+OYBEAIOsTXATV1Fxvb9M8q38COE9azEGb1g1kcUXUE8a0FF1t1U5TwT1QfOo6zw5aYqy9b8EEiboOQumLBRYB2HRHofHMLyFY4zpLl6i2AXK5tJgf1JUVPfJZp2oi6iHPVUp8SfmQd4pziy4SMZMApNyyUqreCYsqSupd56D0xgKLPrd4StFcqNycGncV6lpA/uDBP76urOiW2srCjRCOWhH1lvmTJFZbXvhuXXnxGKieDdVUuNy2DoifVl9RsICj3NTTWGDRForyCu8Q4CZIsg6dS1wVM436jorK+tMWVQxm/xoix+rKix+A6JEwcg6A5OwxJ6JQvXtDi/2j6yiUGTjJnbYwf5LERjy2/PbcwtxCAGcD8LvOtInEoRoxopcsrih+ynUaItqMiNYBHwG4b/TM8Gzx5D6BTgSQ4zraZ9oF8lBtRcm1roNQ5uAIFm1lxSm7tuetKroEwGUQcb4IrEBXCfQWLxb/zuJyFldEyWzJYcXL68uLphjI8VDUAHB9Ka5RFOfUlhX+zPWxoczCAou2acEZEq0rK7pL4tETAP3IUYwoBI9agwNyV626btHhQ1e6Pi5EtH0Wlxe9kB1t+7EARwjwoYsMCnxoYQ/L/XjVH1wfD8o8vERIX07E1gJ/Gf3n5v1MLP4bqEwGdKdeeOVWAO8K4rfUlg2d4fowENEO0XeP2PVTADPGzQ2/2RnDVSJyNFSL0cNf7hVoEuhzMcm68rMeXkS9jiNY9LWWHFLQUJRbdALUniCqc3v21WQRgPOzO7PLa8tZXBGlg4WTi5vqy4vP13j0aIHeKT3VP0uxEZAnIF5lVDb+nMUVucQRLNou8ydJDEAIqjWB2ZFvA7gdin0T+BIfC8xFtWUFz7HdAlF6qp867E1A/7HXi5/e0JHVcSuA4wDkdX/L2i5iXvAU17xXVric5xBKBiywqGs23S30DwD7jZrdsL/Pegcp7D4AdgNkGID87dhKBwSNolhuBYvE6tyoKX5lWZlwTTCitCf67hH4FMBpo2c0Xyf+eLko9hFIQIEhEC2BfsXdh4J2WG2CyCpAPlQbfxUxebnuiMKP2NuKkgkLLNphS6cMeR3A67u9/EH/3HjfAo3GB1pjhsPqKPGwq+gX/r5UV8ZV1wjs2z4xn3YqmpcuKPkE08W63hci6n1LphU0AHho/IPv/L5t2M6DfD4zIBaPDTAwA2I2NuqLz/eM+UiBiDFYr2o+qW0paEalxF3vB9G2sMCibvvw4N3XAVj32f/9p+s8RJRaFpwxIYpNDUo3b1I6x3Uuou7gJHciIiKiBGOBRURERJRgLLCIiIiIEowFFhEREVGCscAiIiIiSjAWWEREREQJxgKLiIiIKMFYYBERERElGAssIiIiogRjgUVERESUYCywiIiIiBKMBRYRERFRgrHAIiIiIkowFlhERERECcYCi4iIiCjBWGARERERJRgLLCIiIqIEY4FFRERElGAssIiIiIgSjAUWERERUYKxwCIiIiJKMBZYRERERAnGAouIiIgowVhgERERESUYCywiSjuiaHKdIcEWuQ5ARF3DAouopyg2uo6QSAKNr1y1ynWM7aKi9a4zJJRgtesIRNQ1LLCIeorBRxCo6xiJoiofF+02LOY6x3b6yHWAhFKpdR2BiLqGBRZRD1Fr/5s+5RWggg8WTEBKFFgxtX93nSHB/uE6ABF1DQssoh6icV0MSFqUWKpog8GKVNmffsUlyyBY4zpHQohErU9fdx2DiLqGBRZRDxnXMWQZRP/rOkciiGCjEf3AdY7ttduHsGL1Hdc5EkLtso6stkbXMYioa1hgEfWQ5yolrlaed50jMXRtpy3+j+sU2+u5Y2Bh5FXXORLDvDMCI1Li0iwR/T8WWEQ9KMv47gTQ7jpH90loWZl0uE6x/XFFVeVtAJ+4jtI92iGQefMnCQssohTDAouoBy0sG7QKgpSfcC3xrDtdZ+iqvBb/PwF87DpH90iDxDpec52CiLqOBRZRT7P6ApAad99ti4j8sfawgSk3l2xB5cB1InjIdY5u+vviacOXuQ5BRF3HAouoh1m/zBbVVP2QbFbova5D7Cifh0cBed91jh20PqZynesQRLRjWGAR9bAlk4tWWJinXefYEar6tw0boykzuf2LFk4ubrGqF7vOsUME97xfUfSh6xhEtGNYYBH1ONHi/MJbAP236yRdo50i3j2rKoe3uU7SHT5f9HVAZ6dSV30B/hNF7AHXOYhox7HAIuoF8ydJuxpzDoBm11m2m5hfjm0pSPkJ+osnD1urFrdANVXugowpcO+yjW+w9xVRChPXAYgyxcR56ou0RKZDcDkAz3Wer6AAXqkrLz7EdZBEClSHr1LB9ZL8x76qrrz4h66DEFH3cASLqJfMnyQxvx93A5jjOsvXWGZhr3QdItHqKopvFMWjAJJ1JMsKZE5RXtHJroMQUfexwCLqRQsnFzdl52UfD+AN11m2RYAWT+XkJW+X/Mt1lh7ZPzHXApqsCycvMp0d582fJGnQmJaIeImQyIGxNZHdreJxhX7XdZbNfOSpHLeooigpi79EGT2jeYjxxZ4HZAIAn+s8ACygy+JxHL/0sJK3XYchosTgCBaRA4vKij7wfN6pCvzVdZbPNBsjZyxq/dtbroP0tCXTChrg+Y4E8DjcN4BVCOZY4zuMxRVReuEIFpFDwarFWTZ/4AOiciLE2eTrD/qJ/1tvlQ1a7/p49KYRjy3PyS3M+wWgF8PNuVABndPW1H7kilN25WVBojTDAovIsdEzmvuKFz/ZCM5WoLTXXlhko1j7exM3v1w0rSji+ji4UlodOVJELwHwnd57Va0TI3fWTin+nev9J6KewQKLKEmMmtVQ6hnzcwA/RU++NxVWoG+okUvy4nbhgqlDWl3vu1PT1Ywav6bEM/ZwiN4I1f49+GodCtwe146H32/d+SNUStz17hNRz2CBRZRkRocaJnjq/VKhEyAYlLANKzZCsFxEbsbGwudqK6XT9b4mm0Bo7S6qHTdC9ECBFADITsBmYwDWiMhrRuM3Lyof8o7r/SSinscCiygJjXsinB8dZMcD5mBV3V+M+S5U/TuwqRiAOgCvqNrXc6K5f333iJ0+db1/yW7MnKaRcWsnQTFRgP0AGQ5oV+fIrQSwQGFfU+DVJSysiDIKCyyiZDZdzfjxjTnt/vwca9srRPVIBSYAGPqlv6PaCTF/UcFfrOeFpF0/HtcxuPU5Xo7qIpWRNcuy7EaTk9On725xtd8zqt9TIyNFMW4bv7AckH9D8a4gPr89O2eh9a3rWDFxRAdEUmYdRCJKDBZYRCloZM37/Xw2byzUZG3+uNcWW7i4cvgnrvMRERERERERERERERERERERERERERERERERERERERERERERERERERERERERERERERERERERERERERERERERERERERERERERERERERERERERERERERERERERERERERERERERERERERERERERERERERERERERERERERERERERERERERERERERERERERERERERERERERERERERERERERERERERERERERERERERERERERERERERERERERERERERERERERERERERERERERERERERERERERERERERERERERERERERERERERERERERERERERERERERERERERERERERERERERERERERERERERERERERERERERERERERERERERERERERERERERERERERERERERERERERERERERERERERERERERERERERERERERERERERERERERERERERERERERERERERERERERERERERERERERERERERERERERERERERERERERERERERERERERERERERERERERERERERERERERERERERERERERERERERJZf/A0IJhJ8rHicNAAAAJXRFWHRkYXRlOmNyZWF0ZQAyMDIyLTExLTIxVDE5OjIxOjE4KzAwOjAwuGxiogAAACV0RVh0ZGF0ZTptb2RpZnkAMjAyMi0xMS0yMVQxOToyMToxOCswMDowMMkx2h4AAAAASUVORK5CYII=;" vertex="1" parent="1">
          <mxGeometry x="280" y="270" width="130" height="130" as="geometry" />
        </mxCell>
        <mxCell id="YdMZqmk-Ah36DfSMYHvH-3" value="&lt;font style=&quot;font-size: 18px;&quot; face=&quot;Tahoma&quot;&gt;&lt;b style=&quot;&quot;&gt;REPORT&lt;br&gt;(Monthly)&lt;br&gt;POSTAL_CODE&lt;/b&gt;&lt;/font&gt;" style="html=1;dashed=0;whiteSpace=wrap;shape=mxgraph.dfd.start;fillColor=#FF3333;" vertex="1" parent="1">
          <mxGeometry x="884" y="376.97" width="190" height="80" as="geometry" />
        </mxCell>
        <mxCell id="YdMZqmk-Ah36DfSMYHvH-4" value="&lt;b style=&quot;border-color: var(--border-color); font-family: Tahoma; font-size: 18px;&quot;&gt;REPORT&lt;/b&gt;&lt;font style=&quot;font-size: 18px;&quot; face=&quot;Tahoma&quot;&gt;&lt;b style=&quot;&quot;&gt;&lt;br&gt;(Historical)&lt;br&gt;POSTAL_CODE_HX&lt;/b&gt;&lt;/font&gt;" style="html=1;dashed=0;whiteSpace=wrap;shape=mxgraph.dfd.start;fillColor=#FF3333;" vertex="1" parent="1">
          <mxGeometry x="884" y="581" width="190" height="80" as="geometry" />
        </mxCell>
        <mxCell id="YdMZqmk-Ah36DfSMYHvH-5" value="&lt;font style=&quot;font-size: 18px;&quot; face=&quot;Tahoma&quot;&gt;&lt;b style=&quot;&quot;&gt;RAW&lt;br&gt;&lt;/b&gt;&lt;/font&gt;&lt;b style=&quot;border-color: var(--border-color); font-family: Tahoma; font-size: 18px;&quot;&gt;(Monthly)&lt;/b&gt;&lt;font style=&quot;font-size: 18px;&quot; face=&quot;Tahoma&quot;&gt;&lt;b style=&quot;&quot;&gt;&lt;br&gt;POSTAL_CODE&lt;/b&gt;&lt;/font&gt;" style="html=1;dashed=0;whiteSpace=wrap;shape=mxgraph.dfd.start;fillColor=#04A597;container=0;" vertex="1" parent="1">
          <mxGeometry x="290" y="470" width="170" height="80" as="geometry" />
        </mxCell>
        <mxCell id="YdMZqmk-Ah36DfSMYHvH-6" value="" style="html=1;shadow=0;dashed=0;align=center;verticalAlign=middle;shape=mxgraph.arrows2.arrow;dy=0;dx=30;notch=30;fillColor=#FF3333;strokeColor=#000000;strokeWidth=3;container=0;gradientColor=#04A597;gradientDirection=west;" vertex="1" parent="1">
          <mxGeometry x="805" y="391.97" width="80" height="50" as="geometry" />
        </mxCell>
        <mxCell id="YdMZqmk-Ah36DfSMYHvH-10" value="&lt;font style=&quot;font-size: 18px;&quot; face=&quot;Tahoma&quot;&gt;&lt;b style=&quot;&quot;&gt;CURATED&lt;br&gt;&lt;/b&gt;&lt;/font&gt;&lt;b style=&quot;border-color: var(--border-color); font-family: Tahoma; font-size: 18px;&quot;&gt;(Monthly)&lt;/b&gt;&lt;font style=&quot;font-size: 18px;&quot; face=&quot;Tahoma&quot;&gt;&lt;b style=&quot;&quot;&gt;&lt;br&gt;POSTAL_CODE&lt;/b&gt;&lt;/font&gt;" style="html=1;dashed=0;whiteSpace=wrap;shape=mxgraph.dfd.start;fillColor=#04A597;container=0;" vertex="1" parent="1">
          <mxGeometry x="580" y="376.97" width="210" height="80" as="geometry" />
        </mxCell>
        <mxCell id="YdMZqmk-Ah36DfSMYHvH-16" value="" style="sketch=0;html=1;aspect=fixed;strokeColor=none;shadow=0;fillColor=#52A8FF;verticalAlign=top;labelPosition=center;verticalLabelPosition=bottom;shape=mxgraph.gcp2.gear_load" vertex="1" parent="1">
          <mxGeometry x="466.01" y="452.97" width="123.99" height="114.07" as="geometry" />
        </mxCell>
        <mxCell id="YdMZqmk-Ah36DfSMYHvH-19" value="" style="shape=mxgraph.arrows.jump-in_arrow_2;html=1;verticalLabelPosition=bottom;verticalAlign=middle;strokeWidth=3;strokeColor=#36393d;fillColor=#cce5ff;shadow=0;dashed=0;gradientColor=#707E8C;direction=west;" vertex="1" parent="1">
          <mxGeometry x="580" y="469.04" width="186" height="50" as="geometry" />
        </mxCell>
        <mxCell id="YdMZqmk-Ah36DfSMYHvH-20" value="" style="shape=mxgraph.arrows.jump-in_arrow_2;html=1;verticalLabelPosition=bottom;verticalAlign=middle;strokeWidth=3;strokeColor=#36393d;fillColor=#cce5ff;shadow=0;dashed=0;gradientColor=#707E8C;direction=east;flipH=1;" vertex="1" parent="1">
          <mxGeometry x="580" y="519.04" width="186" height="50" as="geometry" />
        </mxCell>
      </root>
    </mxGraphModel>
  </diagram>
</mxfile>
